  0
SECTION
  2
HEADER
  9
$ACADVER
  1
AC1014
  9
$HANDSEED
  5
FFFF
  9
$MEASUREMENT
 70
     1
  0
ENDSEC
  0
SECTION
  2
TABLES
  0
TABLE
  2
VPORT
  5
8
330
0
100
AcDbSymbolTable
 70
     4
  0
VPORT
  5
2E
330
8
100
AcDbSymbolTableRecord
100
AcDbViewportTableRecord
  2
*ACTIVE
 70
     0
 10
0.0
 20
0.0
 11
1.0
 21
1.0
 12
210.0
 22
148.5
 13
0.0
 23
0.0
 14
10.0
 24
10.0
 15
10.0
 25
10.0
 16
0.0
 26
0.0
 36
1.0
 17
0.0
 27
0.0
 37
0.0
 40
341.0
 41
1.24
 42
50.0
 43
0.0
 44
0.0
 50
0.0
 51
0.0
 71
     0
 72
   100
 73
     1
 74
     3
 75
     0
 76
     0
 77
     0
 78
     0
  0
ENDTAB
  0
TABLE
  2
LTYPE
  5
5
330
0
100
AcDbSymbolTable
 70
     1
  0
LTYPE
  5
14
330
5
100
AcDbSymbolTableRecord
100
AcDbLinetypeTableRecord
  2
BYBLOCK
 70
     0
  3

 72
    65
 73
     0
 40
0.0
  0
LTYPE
  5
15
330
5
100
AcDbSymbolTableRecord
100
AcDbLinetypeTableRecord
  2
BYLAYER
 70
     0
  3

 72
    65
 73
     0
 40
0.0
  0
LTYPE
  5
16
330
5
100
AcDbSymbolTableRecord
100
AcDbLinetypeTableRecord
  2
CONTINUOUS
 70
     0
  3
Solid line
 72
    65
 73
     0
 40
0.0
  0
ENDTAB
  0
TABLE
  2
LAYER
  5
2
100
AcDbSymbolTable
 70
2
  0
LAYER
  5
50
100
AcDbSymbolTableRecord
100
AcDbLayerTableRecord
  2
0
 70
0
  6
CONTINUOUS
  0
LAYER
  5
51
100
AcDbSymbolTableRecord
100
AcDbLayerTableRecord
  2
Layer_1
 70
0
  6
CONTINUOUS
  0
ENDTAB
  0
TABLE
  2
STYLE
  5
3
330
0
100
AcDbSymbolTable
 70
     1
  0
STYLE
  5
11
330
3
100
AcDbSymbolTableRecord
100
AcDbTextStyleTableRecord
  2
STANDARD
 70
     0
 40
0.0
 41
1.0
 50
0.0
 71
     0
 42
2.5
  3
txt
  4

  0
ENDTAB
  0
TABLE
  2
VIEW
  5
6
330
0
100
AcDbSymbolTable
 70
     0
  0
ENDTAB
  0
TABLE
  2
UCS
  5
7
330
0
100
AcDbSymbolTable
 70
     0
  0
ENDTAB
  0
TABLE
  2
APPID
  5
9
330
0
100
AcDbSymbolTable
 70
     2
  0
APPID
  5
12
330
9
100
AcDbSymbolTableRecord
100
AcDbRegAppTableRecord
  2
ACAD
 70
     0
  0
ENDTAB
  0
TABLE
  2
DIMSTYLE
  5
A
330
0
100
AcDbSymbolTable
 70
     1
  0
DIMSTYLE
105
27
330
A
100
AcDbSymbolTableRecord
100
AcDbDimStyleTableRecord
  2
ISO-25
 70
     0
  3

  4

  5

  6

  7

 40
1.0
 41
2.5
 42
0.625
 43
3.75
 44
1.25
 45
0.0
 46
0.0
 47
0.0
 48
0.0
140
2.5
141
2.5
142
0.0
143
0.03937007874016
144
1.0
145
0.0
146
1.0
147
0.625
 71
     0
 72
     0
 73
     0
 74
     0
 75
     0
 76
     0
 77
     1
 78
     8
170
     0
171
     3
172
     1
173
     0
174
     0
175
     0
176
     0
177
     0
178
     0
270
     2
271
     2
272
     2
273
     2
274
     3
340
11
275
     0
280
     0
281
     0
282
     0
283
     0
284
     8
285
     0
286
     0
287
     3
288
     0
  0
ENDTAB
  0
TABLE
  2
BLOCK_RECORD
  5
1
330
0
100
AcDbSymbolTable
 70
     1
  0
BLOCK_RECORD
  5
1F
330
1
100
AcDbSymbolTableRecord
100
AcDbBlockTableRecord
  2
*MODEL_SPACE
  0
BLOCK_RECORD
  5
1B
330
1
100
AcDbSymbolTableRecord
100
AcDbBlockTableRecord
  2
*PAPER_SPACE
  0
ENDTAB
  0
ENDSEC
  0
SECTION
  2
BLOCKS
  0
BLOCK
  5
20
330
1F
100
AcDbEntity
  8
0
100
AcDbBlockBegin
  2
*MODEL_SPACE
 70
     0
 10
0.0
 20
0.0
 30
0.0
  3
*MODEL_SPACE
  1

  0
ENDBLK
  5
21
330
1F
100
AcDbEntity
  8
0
100
AcDbBlockEnd
  0
BLOCK
  5
1C
330
1B
100
AcDbEntity
 67
     1
  8
0
100
AcDbBlockBegin
  2
*PAPER_SPACE
  1

  0
ENDBLK
  5
1D
330
1B
100
AcDbEntity
 67
     1
  8
0
100
AcDbBlockEnd
  0
ENDSEC
  0
SECTION
  2
ENTITIES
  0
LWPOLYLINE
  5
100
100
AcDbEntity
  8
Layer_1
 62
7
100
AcDbPolyline
 90
33
 70
0
 10
11.578125
 20
29.859377
 30
0.0
 10
13.871080
 20
29.644513
 30
0.0
 10
16.000000
 20
29.000001
 30
0.0
 10
17.972639
 20
27.929673
 30
0.0
 10
19.765625
 20
26.437505
 30
0.0
 10
21.253887
 20
24.648433
 30
0.0
 10
22.312500
 20
22.687505
 30
0.0
 10
22.945292
 20
20.550777
 30
0.0
 10
23.156250
 20
18.234377
 30
0.0
 10
22.945292
 20
15.941401
 30
0.0
 10
22.312500
 20
13.812505
 30
0.0
 10
21.253887
 20
11.863281
 30
0.0
 10
19.765625
 20
10.078129
 30
0.0
 10
17.972639
 20
8.585945
 30
0.0
 10
16.000000
 20
7.515633
 30
0.0
 10
13.871080
 20
6.871097
 30
0.0
 10
11.578125
 20
6.656257
 30
0.0
 10
9.281240
 20
6.871097
 30
0.0
 10
7.140625
 20
7.515633
 30
0.0
 10
5.179680
 20
8.585945
 30
0.0
 10
3.390625
 20
10.078129
 30
0.0
 10
1.902342
 20
11.863281
 30
0.0
 10
0.843750
 20
13.812505
 30
0.0
 10
0.210934
 20
15.941401
 30
0.0
 10
-0.000000
 20
18.234377
 30
0.0
 10
0.210938
 20
20.550777
 30
0.0
 10
0.843750
 20
22.687505
 30
0.0
 10
1.902338
 20
24.648433
 30
0.0
 10
3.390625
 20
26.437505
 30
0.0
 10
5.179675
 20
27.929681
 30
0.0
 10
7.140625
 20
29.000001
 30
0.0
 10
9.281240
 20
29.644513
 30
0.0
 10
11.578125
 20
29.859377
 30
0.0
  0
LWPOLYLINE
  5
101
100
AcDbEntity
  8
Layer_1
 62
7
100
AcDbPolyline
 90
33
 70
0
 10
11.578125
 20
28.250001
 30
0.0
 10
9.601552
 20
28.066393
 30
0.0
 10
7.765625
 20
27.515633
 30
0.0
 10
6.074211
 20
26.597649
 30
0.0
 10
4.531250
 20
25.312505
 30
0.0
 10
3.242178
 20
23.761713
 30
0.0
 10
2.312500
 20
22.046881
 30
0.0
 10
1.749995
 20
20.203121
 30
0.0
 10
1.562500
 20
18.234377
 30
0.0
 10
1.750000
 20
16.277337
 30
0.0
 10
2.312500
 20
14.437505
 30
0.0
 10
3.242182
 20
12.746097
 30
0.0
 10
4.531250
 20
11.203129
 30
0.0
 10
6.074216
 20
9.914073
 30
0.0
 10
7.765625
 20
8.984377
 30
0.0
 10
9.601552
 20
8.433593
 30
0.0
 10
11.578125
 20
8.250001
 30
0.0
 10
13.566393
 20
8.433593
 30
0.0
 10
15.406250
 20
8.984377
 30
0.0
 10
17.109359
 20
9.914065
 30
0.0
 10
18.656250
 20
11.203129
 30
0.0
 10
19.925763
 20
12.734377
 30
0.0
 10
20.828125
 20
14.421881
 30
0.0
 10
21.378887
 20
16.257809
 30
0.0
 10
21.562500
 20
18.234377
 30
0.0
 10
21.378887
 20
20.234369
 30
0.0
 10
20.828125
 20
22.078129
 30
0.0
 10
19.917950
 20
23.777337
 30
0.0
 10
18.656250
 20
25.312505
 30
0.0
 10
17.109359
 20
26.597649
 30
0.0
 10
15.406250
 20
27.515633
 30
0.0
 10
13.566393
 20
28.066393
 30
0.0
 10
11.578125
 20
28.250001
 30
0.0
  0
LWPOLYLINE
  5
102
100
AcDbEntity
  8
Layer_1
 62
7
100
AcDbPolyline
 90
37
 70
0
 10
16.250000
 20
24.421881
 30
0.0
 10
16.250000
 20
23.414073
 30
0.0
 10
16.250000
 20
22.406257
 30
0.0
 10
15.222642
 20
22.855457
 30
0.0
 10
14.203125
 20
23.171881
 30
0.0
 10
13.183581
 20
23.359369
 30
0.0
 10
12.156250
 20
23.421849
 30
0.0
 10
10.082021
 20
23.078089
 30
0.0
 10
8.515625
 20
22.046849
 30
0.0
 10
7.542960
 20
20.414025
 30
0.0
 10
7.218750
 20
18.234345
 30
0.0
 10
7.550773
 20
16.031217
 30
0.0
 10
8.546875
 20
14.390601
 30
0.0
 10
10.160146
 20
13.371065
 30
0.0
 10
12.312500
 20
13.031225
 30
0.0
 10
13.300768
 20
13.089865
 30
0.0
 10
14.265625
 20
13.265641
 30
0.0
 10
15.238266
 20
13.585945
 30
0.0
 10
16.250000
 20
14.046889
 30
0.0
 10
16.250000
 20
13.054697
 30
0.0
 10
16.250000
 20
12.062513
 30
0.0
 10
15.195298
 20
11.667977
 30
0.0
 10
14.125000
 20
11.390641
 30
0.0
 10
13.054674
 20
11.226569
 30
0.0
 10
11.968750
 20
11.171849
 30
0.0
 10
8.945303
 20
11.648409
 30
0.0
 10
6.625000
 20
13.078097
 30
0.0
 10
5.160150
 20
15.320281
 30
0.0
 10
4.671875
 20
18.234345
 30
0.0
 10
5.160156
 20
21.156217
 30
0.0
 10
6.625000
 20
23.390601
 30
0.0
 10
8.945303
 20
24.808553
 30
0.0
 10
11.968750
 20
25.281225
 30
0.0
 10
13.089831
 20
25.226505
 30
0.0
 10
14.171875
 20
25.062465
 30
0.0
 10
15.222642
 20
24.792921
 30
0.0
 10
16.250000
 20
24.421841
 30
0.0
  0
LWPOLYLINE
  5
103
100
AcDbEntity
  8
Layer_1
 62
7
100
AcDbPolyline
 90
9
 70
0
 10
27.484375
 20
29.984377
 30
0.0
 10
47.218750
 20
29.984377
 30
0.0
 10
47.218750
 20
27.328129
 30
0.0
 10
38.937500
 20
27.328129
 30
0.0
 10
38.937500
 20
6.656257
 30
0.0
 10
35.765625
 20
6.656257
 30
0.0
 10
35.765625
 20
27.328129
 30
0.0
 10
27.484375
 20
27.328129
 30
0.0
 10
27.484375
 20
29.984377
 30
0.0
  0
LWPOLYLINE
  5
104
100
AcDbEntity
  8
Layer_1
 62
7
100
AcDbPolyline
 90
17
 70
0
 10
52.796872
 20
15.453129
 30
0.0
 10
49.847648
 20
15.253905
 30
0.0
 10
47.968750
 20
14.656257
 30
0.0
 10
46.960932
 20
13.578129
 30
0.0
 10
46.625000
 20
11.937505
 30
0.0
 10
46.874999
 20
10.562497
 30
0.0
 10
47.625000
 20
9.500001
 30
0.0
 10
48.820304
 20
8.832033
 30
0.0
 10
50.375000
 20
8.609377
 30
0.0
 10
52.527336
 20
9.031257
 30
0.0
 10
54.203128
 20
10.296881
 30
0.0
 10
55.292960
 20
12.277345
 30
0.0
 10
55.656248
 20
14.812505
 30
0.0
 10
55.656248
 20
15.132817
 30
0.0
 10
55.656248
 20
15.453129
 30
0.0
 10
54.226560
 20
15.453129
 30
0.0
 10
52.796872
 20
15.453129
 30
0.0
  0
LWPOLYLINE
  5
105
100
AcDbEntity
  8
Layer_1
 62
7
100
AcDbPolyline
 90
41
 70
0
 10
58.531248
 20
16.640633
 30
0.0
 10
58.531248
 20
11.648441
 30
0.0
 10
58.531248
 20
6.656257
 30
0.0
 10
57.093752
 20
6.656257
 30
0.0
 10
55.656248
 20
6.656257
 30
0.0
 10
55.656248
 20
7.984377
 30
0.0
 10
55.656248
 20
9.312505
 30
0.0
 10
54.550768
 20
7.925785
 30
0.0
 10
53.203128
 20
6.953129
 30
0.0
 10
51.570304
 20
6.390633
 30
0.0
 10
49.609376
 20
6.203129
 30
0.0
 10
47.195309
 20
6.578129
 30
0.0
 10
45.328125
 20
7.703129
 30
0.0
 10
44.144530
 20
9.472657
 30
0.0
 10
43.750000
 20
11.750001
 30
0.0
 10
44.242187
 20
14.339841
 30
0.0
 10
45.718750
 20
16.203129
 30
0.0
 10
48.187495
 20
17.328121
 30
0.0
 10
51.625000
 20
17.703129
 30
0.0
 10
53.640624
 20
17.703129
 30
0.0
 10
55.656248
 20
17.703129
 30
0.0
 10
55.656248
 20
17.843753
 30
0.0
 10
55.656248
 20
17.984377
 30
0.0
 10
55.328120
 20
19.742177
 30
0.0
 10
54.343752
 20
21.046881
 30
0.0
 10
52.781240
 20
21.867185
 30
0.0
 10
50.687504
 20
22.140633
 30
0.0
 10
49.207024
 20
22.050777
 30
0.0
 10
47.765625
 20
21.781257
 30
0.0
 10
46.371090
 20
21.332025
 30
0.0
 10
45.031250
 20
20.703129
 30
0.0
 10
45.031250
 20
22.031249
 30
0.0
 10
45.031250
 20
23.359377
 30
0.0
 10
46.585934
 20
23.890617
 30
0.0
 10
48.093750
 20
24.265633
 30
0.0
 10
49.558584
 20
24.499993
 30
0.0
 10
50.984376
 20
24.578153
 30
0.0
 10
54.300776
 20
24.085953
 30
0.0
 10
56.656248
 20
22.609401
 30
0.0
 10
58.062488
 20
20.132833
 30
0.0
 10
58.531248
 20
16.640657
 30
0.0
  0
LWPOLYLINE
  5
106
100
AcDbEntity
  8
Layer_1
 62
7
100
AcDbPolyline
 90
8
 70
0
 10
62.406248
 20
24.156257
 30
0.0
 10
65.453128
 20
24.156257
 30
0.0
 10
70.921872
 20
9.468753
 30
0.0
 10
76.390624
 20
24.156257
 30
0.0
 10
79.437504
 20
24.156257
 30
0.0
 10
72.875000
 20
6.656257
 30
0.0
 10
68.968752
 20
6.656257
 30
0.0
 10
62.406248
 20
24.156257
 30
0.0
  0
LWPOLYLINE
  5
107
100
AcDbEntity
  8
Layer_1
 62
7
100
AcDbPolyline
 90
4
 70
0
 10
91.328128
 20
26.875001
 30
0.0
 10
87.046872
 20
15.265633
 30
0.0
 10
95.625000
 20
15.265633
 30
0.0
 10
91.328128
 20
26.875001
 30
0.0
  0
LWPOLYLINE
  5
108
100
AcDbEntity
  8
Layer_1
 62
7
100
AcDbPolyline
 90
9
 70
0
 10
89.546872
 20
29.984377
 30
0.0
 10
93.125000
 20
29.984377
 30
0.0
 10
102.015624
 20
6.656257
 30
0.0
 10
98.734376
 20
6.656257
 30
0.0
 10
96.609376
 20
12.640633
 30
0.0
 10
86.093752
 20
12.640633
 30
0.0
 10
83.968752
 20
6.656257
 30
0.0
 10
80.640624
 20
6.656257
 30
0.0
 10
89.546872
 20
29.984377
 30
0.0
  0
LWPOLYLINE
  5
109
100
AcDbEntity
  8
Layer_1
 62
7
100
AcDbPolyline
 90
33
 70
0
 10
104.984376
 20
13.562505
 30
0.0
 10
104.984376
 20
18.859377
 30
0.0
 10
104.984376
 20
24.156257
 30
0.0
 10
106.421872
 20
24.156257
 30
0.0
 10
107.859376
 20
24.156257
 30
0.0
 10
107.859376
 20
18.914065
 30
0.0
 10
107.859376
 20
13.671881
 30
0.0
 10
108.101560
 20
11.496097
 30
0.0
 10
108.828128
 20
9.937505
 30
0.0
 10
110.039056
 20
9.011721
 30
0.0
 10
111.734376
 20
8.703129
 30
0.0
 10
113.816400
 20
9.074225
 30
0.0
 10
115.406248
 20
10.187505
 30
0.0
 10
116.425768
 20
11.941409
 30
0.0
 10
116.765624
 20
14.234377
 30
0.0
 10
116.765624
 20
19.195313
 30
0.0
 10
116.765624
 20
24.156257
 30
0.0
 10
118.203120
 20
24.156257
 30
0.0
 10
119.640624
 20
24.156257
 30
0.0
 10
119.640624
 20
15.406257
 30
0.0
 10
119.640624
 20
6.656257
 30
0.0
 10
118.203120
 20
6.656257
 30
0.0
 10
116.765624
 20
6.656257
 30
0.0
 10
116.765624
 20
8.000001
 30
0.0
 10
116.765624
 20
9.343753
 30
0.0
 10
115.632800
 20
7.953129
 30
0.0
 10
114.328128
 20
6.968753
 30
0.0
 10
112.839840
 20
6.394537
 30
0.0
 10
111.125000
 20
6.203129
 30
0.0
 10
108.472648
 20
6.671881
 30
0.0
 10
106.546872
 20
8.078129
 30
0.0
 10
105.375000
 20
10.386721
 30
0.0
 10
104.984376
 20
13.562505
 30
0.0
  0
LWPOLYLINE
  5
10a
100
AcDbEntity
  8
Layer_1
 62
7
100
AcDbPolyline
 90
2
 70
0
 10
112.218752
 20
24.578129
 30
0.0
 10
112.218752
 20
24.578129
 30
0.0
  0
LWPOLYLINE
  5
10b
100
AcDbEntity
  8
Layer_1
 62
7
100
AcDbPolyline
 90
17
 70
0
 10
138.156248
 20
15.390633
 30
0.0
 10
137.828112
 20
18.218745
 30
0.0
 10
136.843752
 20
20.359377
 30
0.0
 10
135.300768
 20
21.718745
 30
0.0
 10
133.265624
 20
22.171881
 30
0.0
 10
131.226552
 20
21.718745
 30
0.0
 10
129.671872
 20
20.359377
 30
0.0
 10
128.699216
 20
18.218745
 30
0.0
 10
128.375000
 20
15.390633
 30
0.0
 10
128.699224
 20
12.558593
 30
0.0
 10
129.671872
 20
10.406257
 30
0.0
 10
131.226552
 20
9.058593
 30
0.0
 10
133.265624
 20
8.609377
 30
0.0
 10
135.300768
 20
9.058593
 30
0.0
 10
136.843752
 20
10.406257
 30
0.0
 10
137.828112
 20
12.558593
 30
0.0
 10
138.156248
 20
15.390633
 30
0.0
  0
LWPOLYLINE
  5
10c
100
AcDbEntity
  8
Layer_1
 62
7
100
AcDbPolyline
 90
27
 70
0
 10
128.375000
 20
21.500001
 30
0.0
 10
129.398432
 20
22.859369
 30
0.0
 10
130.656248
 20
23.812505
 30
0.0
 10
132.179680
 20
24.386713
 30
0.0
 10
133.968752
 20
24.578129
 30
0.0
 10
136.855456
 20
23.945305
 30
0.0
 10
139.140624
 20
22.046881
 30
0.0
 10
140.640616
 20
19.117185
 30
0.0
 10
141.140624
 20
15.390633
 30
0.0
 10
140.640616
 20
11.664065
 30
0.0
 10
139.140624
 20
8.734377
 30
0.0
 10
136.855456
 20
6.835945
 30
0.0
 10
133.968752
 20
6.203129
 30
0.0
 10
132.179680
 20
6.390633
 30
0.0
 10
130.656248
 20
6.953129
 30
0.0
 10
129.398432
 20
7.917969
 30
0.0
 10
128.375000
 20
9.281257
 30
0.0
 10
128.375000
 20
7.968753
 30
0.0
 10
128.375000
 20
6.656257
 30
0.0
 10
126.929688
 20
6.656257
 30
0.0
 10
125.484376
 20
6.656257
 30
0.0
 10
125.484376
 20
18.812505
 30
0.0
 10
125.484376
 20
30.968753
 30
0.0
 10
126.929688
 20
30.968753
 30
0.0
 10
128.375000
 20
30.968753
 30
0.0
 10
128.375000
 20
26.234377
 30
0.0
 10
128.375000
 20
21.500001
 30
0.0
  0
LWPOLYLINE
  5
10d
100
AcDbEntity
  8
Layer_1
 62
7
100
AcDbPolyline
 90
29
 70
0
 10
156.046872
 20
21.468753
 30
0.0
 10
155.539048
 20
21.710929
 30
0.0
 10
154.984376
 20
21.875001
 30
0.0
 10
154.390616
 20
21.980465
 30
0.0
 10
153.734376
 20
22.015665
 30
0.0
 10
151.578120
 20
21.617217
 30
0.0
 10
149.984376
 20
20.421913
 30
0.0
 10
149.011712
 20
18.496121
 30
0.0
 10
148.687504
 20
15.875033
 30
0.0
 10
148.687504
 20
11.265665
 30
0.0
 10
148.687504
 20
6.656289
 30
0.0
 10
147.242184
 20
6.656289
 30
0.0
 10
145.796872
 20
6.656289
 30
0.0
 10
145.796872
 20
15.406289
 30
0.0
 10
145.796872
 20
24.156289
 30
0.0
 10
147.242184
 20
24.156289
 30
0.0
 10
148.687504
 20
24.156289
 30
0.0
 10
148.687504
 20
22.796913
 30
0.0
 10
148.687504
 20
21.437537
 30
0.0
 10
149.730464
 20
22.824249
 30
0.0
 10
151.046872
 20
23.796913
 30
0.0
 10
152.656240
 20
24.382841
 30
0.0
 10
154.578128
 20
24.578161
 30
0.0
 10
154.890616
 20
24.566401
 30
0.0
 10
155.234376
 20
24.531281
 30
0.0
 10
155.613272
 20
24.488321
 30
0.0
 10
156.031248
 20
24.421921
 30
0.0
 10
156.039248
 20
22.945361
 30
0.0
 10
156.047248
 20
21.468793
 30
0.0
  0
LWPOLYLINE
  5
10e
100
AcDbEntity
  8
Layer_1
 62
7
100
AcDbPolyline
 90
29
 70
0
 10
166.375000
 20
5.031257
 30
0.0
 10
165.171864
 20
2.449233
 30
0.0
 10
164.000000
 20
0.953129
 30
0.0
 10
162.648432
 20
0.238289
 30
0.0
 10
160.906248
 20
0.000001
 30
0.0
 10
159.757816
 20
0.000001
 30
0.0
 10
158.609376
 20
0.000001
 30
0.0
 10
158.609376
 20
1.203129
 30
0.0
 10
158.609376
 20
2.406257
 30
0.0
 10
159.453120
 20
2.406257
 30
0.0
 10
160.296872
 20
2.406257
 30
0.0
 10
161.351560
 20
2.546881
 30
0.0
 10
162.140624
 20
2.968753
 30
0.0
 10
162.832032
 20
3.914073
 30
0.0
 10
163.593752
 20
5.625001
 30
0.0
 10
163.851560
 20
6.281249
 30
0.0
 10
164.109376
 20
6.937505
 30
0.0
 10
160.570312
 20
15.546881
 30
0.0
 10
157.031248
 20
24.156257
 30
0.0
 10
158.554688
 20
24.156257
 30
0.0
 10
160.078128
 20
24.156257
 30
0.0
 10
162.812496
 20
17.312505
 30
0.0
 10
165.546872
 20
10.468753
 30
0.0
 10
168.281248
 20
17.312505
 30
0.0
 10
171.015624
 20
24.156257
 30
0.0
 10
172.539064
 20
24.156257
 30
0.0
 10
174.062504
 20
24.156257
 30
0.0
 10
170.218752
 20
14.593753
 30
0.0
 10
166.375000
 20
5.031257
 30
0.0
  0
LWPOLYLINE
  5
10f
100
AcDbEntity
  8
Layer_1
 62
7
100
AcDbPolyline
 90
43
 70
0
 10
191.343752
 20
9.312505
 30
0.0
 10
196.851560
 20
9.312505
 30
0.0
 10
202.359376
 20
9.312505
 30
0.0
 10
202.359376
 20
7.984377
 30
0.0
 10
202.359376
 20
6.656257
 30
0.0
 10
194.953120
 20
6.656257
 30
0.0
 10
187.546872
 20
6.656257
 30
0.0
 10
187.546872
 20
7.984377
 30
0.0
 10
187.546872
 20
9.312505
 30
0.0
 10
189.667968
 20
11.488281
 30
0.0
 10
192.437504
 20
14.296881
 30
0.0
 10
194.968744
 20
16.878905
 30
0.0
 10
196.343752
 20
18.343753
 30
0.0
 10
197.628896
 20
19.914057
 30
0.0
 10
198.453128
 20
21.218753
 30
0.0
 10
198.910144
 20
22.394529
 30
0.0
 10
199.062504
 20
23.546881
 30
0.0
 10
198.734368
 20
25.234369
 30
0.0
 10
197.750000
 20
26.578129
 30
0.0
 10
196.253904
 20
27.457017
 30
0.0
 10
194.359376
 20
27.750001
 30
0.0
 10
192.832024
 20
27.621081
 30
0.0
 10
191.218752
 20
27.234377
 30
0.0
 10
189.519528
 20
26.585929
 30
0.0
 10
187.703128
 20
25.671881
 30
0.0
 10
187.703128
 20
27.265633
 30
0.0
 10
187.703128
 20
28.859377
 30
0.0
 10
189.546872
 20
29.531241
 30
0.0
 10
191.265624
 20
30.015633
 30
0.0
 10
192.851560
 20
30.308585
 30
0.0
 10
194.296872
 20
30.406257
 30
0.0
 10
197.554680
 20
29.953113
 30
0.0
 10
200.078128
 20
28.593753
 30
0.0
 10
201.695304
 20
26.476553
 30
0.0
 10
202.234376
 20
23.750001
 30
0.0
 10
202.097648
 20
22.347649
 30
0.0
 10
201.687504
 20
21.015633
 30
0.0
 10
200.933584
 20
19.617185
 30
0.0
 10
199.734376
 20
17.984377
 30
0.0
 10
198.917960
 20
17.101561
 30
0.0
 10
197.250000
 20
15.359377
 30
0.0
 10
194.726560
 20
12.769529
 30
0.0
 10
191.343752
 20
9.312505
 30
0.0
  0
LWPOLYLINE
  5
110
100
AcDbEntity
  8
Layer_1
 62
7
100
AcDbPolyline
 90
17
 70
0
 10
215.750000
 20
27.906257
 30
0.0
 10
213.613272
 20
27.304681
 30
0.0
 10
212.078128
 20
25.500001
 30
0.0
 10
211.164056
 20
22.503897
 30
0.0
 10
210.859376
 20
18.296881
 30
0.0
 10
211.164064
 20
14.097657
 30
0.0
 10
212.078128
 20
11.093753
 30
0.0
 10
213.613272
 20
9.300785
 30
0.0
 10
215.750000
 20
8.703129
 30
0.0
 10
217.894520
 20
9.300785
 30
0.0
 10
219.421872
 20
11.093753
 30
0.0
 10
220.347640
 20
14.097657
 30
0.0
 10
220.656248
 20
18.296881
 30
0.0
 10
220.347656
 20
22.503897
 30
0.0
 10
219.421872
 20
25.500001
 30
0.0
 10
217.894520
 20
27.304681
 30
0.0
 10
215.750000
 20
27.906257
 30
0.0
  0
LWPOLYLINE
  5
111
100
AcDbEntity
  8
Layer_1
 62
7
100
AcDbPolyline
 90
17
 70
0
 10
215.750000
 20
30.406257
 30
0.0
 10
219.207024
 20
29.628897
 30
0.0
 10
221.734376
 20
27.296881
 30
0.0
 10
223.292952
 20
23.499993
 30
0.0
 10
223.812504
 20
18.296881
 30
0.0
 10
223.292960
 20
13.101561
 30
0.0
 10
221.734376
 20
9.296881
 30
0.0
 10
219.207024
 20
6.976569
 30
0.0
 10
215.750000
 20
6.203129
 30
0.0
 10
212.289056
 20
6.976569
 30
0.0
 10
209.750000
 20
9.296881
 30
0.0
 10
208.203120
 20
13.101561
 30
0.0
 10
207.687504
 20
18.296881
 30
0.0
 10
208.203128
 20
23.499993
 30
0.0
 10
209.750000
 20
27.296881
 30
0.0
 10
212.289056
 20
29.628897
 30
0.0
 10
215.750000
 20
30.406257
 30
0.0
  0
LWPOLYLINE
  5
112
100
AcDbEntity
  8
Layer_1
 62
7
100
AcDbPolyline
 90
12
 70
0
 10
229.921872
 20
9.312505
 30
0.0
 10
235.078128
 20
9.312505
 30
0.0
 10
235.078128
 20
27.109377
 30
0.0
 10
229.468752
 20
25.984377
 30
0.0
 10
229.468752
 20
28.859377
 30
0.0
 10
235.046872
 20
29.984377
 30
0.0
 10
238.203128
 20
29.984377
 30
0.0
 10
238.203128
 20
9.312505
 30
0.0
 10
243.359376
 20
9.312505
 30
0.0
 10
243.359376
 20
6.656257
 30
0.0
 10
229.921872
 20
6.656257
 30
0.0
 10
229.921872
 20
9.312505
 30
0.0
  0
LWPOLYLINE
  5
113
100
AcDbEntity
  8
Layer_1
 62
7
100
AcDbPolyline
 90
59
 70
0
 10
259.312504
 20
19.234377
 30
0.0
 10
261.328112
 20
18.488273
 30
0.0
 10
262.843752
 20
17.218753
 30
0.0
 10
263.804672
 20
15.507809
 30
0.0
 10
264.125000
 20
13.437505
 30
0.0
 10
263.531240
 20
10.375001
 30
0.0
 10
261.750000
 20
8.093753
 30
0.0
 10
258.874992
 20
6.675777
 30
0.0
 10
255.000000
 20
6.203129
 30
0.0
 10
253.507808
 20
6.277369
 30
0.0
 10
251.968752
 20
6.500025
 30
0.0
 10
250.394528
 20
6.855497
 30
0.0
 10
248.765624
 20
7.359401
 30
0.0
 10
248.765624
 20
8.882841
 30
0.0
 10
248.765624
 20
10.406281
 30
0.0
 10
250.140624
 20
9.734401
 30
0.0
 10
251.640624
 20
9.250025
 30
0.0
 10
253.238280
 20
8.957057
 30
0.0
 10
254.906248
 20
8.859401
 30
0.0
 10
257.519520
 20
9.152369
 30
0.0
 10
259.421872
 20
10.031281
 30
0.0
 10
260.593736
 20
11.468777
 30
0.0
 10
260.984376
 20
13.437529
 30
0.0
 10
260.621080
 20
15.273457
 30
0.0
 10
259.531248
 20
16.656281
 30
0.0
 10
257.808584
 20
17.535177
 30
0.0
 10
255.515624
 20
17.828153
 30
0.0
 10
254.156248
 20
17.828153
 30
0.0
 10
252.796872
 20
17.828153
 30
0.0
 10
252.796872
 20
19.125033
 30
0.0
 10
252.796872
 20
20.421905
 30
0.0
 10
254.218744
 20
20.421905
 30
0.0
 10
255.640624
 20
20.421905
 30
0.0
 10
257.695304
 20
20.652361
 30
0.0
 10
259.203128
 20
21.343777
 30
0.0
 10
260.128896
 20
22.484393
 30
0.0
 10
260.437504
 20
24.031281
 30
0.0
 10
260.117176
 20
25.617201
 30
0.0
 10
259.156248
 20
26.781281
 30
0.0
 10
257.613272
 20
27.507825
 30
0.0
 10
255.515624
 20
27.750025
 30
0.0
 10
254.171872
 20
27.679705
 30
0.0
 10
252.734376
 20
27.468785
 30
0.0
 10
251.175776
 20
27.109393
 30
0.0
 10
249.468752
 20
26.593785
 30
0.0
 10
249.468752
 20
28.000041
 30
0.0
 10
249.468752
 20
29.406289
 30
0.0
 10
251.207032
 20
29.843769
 30
0.0
 10
252.828128
 20
30.156289
 30
0.0
 10
254.359368
 20
30.343769
 30
0.0
 10
255.796872
 20
30.406249
 30
0.0
 10
259.015616
 20
29.996073
 30
0.0
 10
261.484376
 20
28.765625
 30
0.0
 10
263.054672
 20
26.851545
 30
0.0
 10
263.578128
 20
24.359369
 30
0.0
 10
263.300768
 20
22.570297
 30
0.0
 10
262.468752
 20
21.078121
 30
0.0
 10
261.124992
 20
19.953113
 30
0.0
 10
259.312504
 20
19.234369
 30
0.0
  0
ENDSEC
  0
SECTION
  2
OBJECTS
  0
DICTIONARY
  5
C
330
0
100
AcDbDictionary
  3
ACAD_GROUP
350
D
  3
ACAD_MLINESTYLE
350
17
  0
DICTIONARY
  5
D
330
C
100
AcDbDictionary
  0
DICTIONARY
  5
1A
330
C
100
AcDbDictionary
  0
DICTIONARY
  5
17
330
C
100
AcDbDictionary
  3
STANDARD
350
18
  0
DICTIONARY
  5
19
330
C
100
AcDbDictionary
  0
ENDSEC
  0
EOF
