<?xml version="1.0" encoding="UTF-8" standalone="no"?>
<!-- Created with Inkscape (http://www.inkscape.org/) -->

<svg
   xmlns:dc="http://purl.org/dc/elements/1.1/"
   xmlns:cc="http://creativecommons.org/ns#"
   xmlns:rdf="http://www.w3.org/1999/02/22-rdf-syntax-ns#"
   xmlns:svg="http://www.w3.org/2000/svg"
   xmlns="http://www.w3.org/2000/svg"
   xmlns:sodipodi="http://sodipodi.sourceforge.net/DTD/sodipodi-0.dtd"
   xmlns:inkscape="http://www.inkscape.org/namespaces/inkscape"
   width="308.47656"
   height="30.957031"
   id="svg3034"
   version="1.1"
   inkscape:version="0.48.3.1 r9886"
   sodipodi:docname="susana.svg">
  <defs
     id="defs3036" />
  <sodipodi:namedview
     id="base"
     pagecolor="#ffffff"
     bordercolor="#666666"
     borderopacity="1.0"
     inkscape:pageopacity="0.0"
     inkscape:pageshadow="2"
     inkscape:zoom="1.4"
     inkscape:cx="364.96289"
     inkscape:cy="-84.998293"
     inkscape:document-units="px"
     inkscape:current-layer="layer1"
     showgrid="false"
     inkscape:window-width="1615"
     inkscape:window-height="1026"
     inkscape:window-x="65"
     inkscape:window-y="24"
     inkscape:window-maximized="1"
     fit-margin-top="0"
     fit-margin-left="0"
     fit-margin-right="0"
     fit-margin-bottom="0" />
  <metadata
     id="metadata3039">
    <rdf:RDF>
      <cc:Work
         rdf:about="">
        <dc:format>image/svg+xml</dc:format>
        <dc:type
           rdf:resource="http://purl.org/dc/dcmitype/StillImage" />
        <dc:title></dc:title>
      </cc:Work>
    </rdf:RDF>
  </metadata>
  <g
     inkscape:label="Layer 1"
     inkscape:groupmode="layer"
     id="layer1"
     transform="translate(-12.990783,-22.930691)">
    <g
       style="font-size:40px;font-style:normal;font-weight:normal;line-height:125%;letter-spacing:0px;word-spacing:0px;fill:#000000;fill-opacity:1;stroke:none;font-family:Sans"
       id="text3042">
      <path
         d="m 31.760314,25.118191 0,1.923828 0,1.923828 -2.182632,-0.937481 -2.055649,-0.664081 -1.958019,-0.395489 -1.889638,-0.131855 -2.856453,0.312519 -2.124015,0.937481 -1.303717,1.513689 -0.434565,2.040998 0.288085,1.699234 0.864259,1.230454 1.689446,0.883803 2.724617,0.698228 1.191406,0.244141 1.191406,0.24414 3.832994,1.162121 2.670912,1.806629 1.582014,2.470712 0.527361,3.193351 -0.712908,3.725589 -2.138654,2.700192 -3.496107,1.640625 -4.824206,0.546875 -2.138679,-0.117187 -2.275383,-0.351563 -2.368168,-0.581054 -2.456051,-0.805665 0,-2.03125 0,-2.03125 2.377926,1.181644 2.329105,0.849606 2.285151,0.512694 2.246099,0.1709 2.993153,-0.332032 2.221691,-0.996093 1.376942,-1.61132 0.458996,-2.177742 -0.332045,-1.914056 -0.99608,-1.445319 -1.733411,-1.059561 -2.582996,-0.756846 -1.201172,-0.234375 -1.201171,-0.234375 -3.803717,-1.127918 -2.583002,-1.625988 -1.479494,-2.241197 -0.493162,-2.973647 0.678711,-3.457012 2.036132,-2.636738 3.247064,-1.6699 4.272468,-0.556662 2.070301,0.09279 2.109386,0.278299 2.153306,0.463888 2.202163,0.649393"
         id="path3047"
         inkscape:connector-curvature="0"
         sodipodi:nodetypes="ccccccccccccccccccccccccccccccccccccccccccccccccccccccccc" />
      <path
         d="m 39.143126,44.688503 0,-6.621094 0,-6.621093 1.796875,0 1.796875,0 0,6.552735 0,6.552734 0.302729,2.719731 0.908209,1.948237 1.513665,1.157229 2.119147,0.38574 2.602528,-0.463867 1.987316,-1.391602 1.274401,-2.192377 0.424818,-2.866216 0,-6.201172 0,-6.201172 1.796875,0 1.796875,0 0,10.9375 0,10.9375 -1.796875,0 -1.796875,0 0,-1.679687 0,-1.679688 -1.416028,1.738282 -1.630847,1.230468 -1.860361,0.717773 -2.143545,0.239258 -3.315436,-0.585937 -2.407221,-1.757813 -1.464843,-2.885741 -0.488282,-3.969728 m 9.042969,-13.769531 0,0 0,0"
         id="path3049"
         inkscape:connector-curvature="0"
         sodipodi:nodetypes="cccccccccccccccccccccccccccccccccccc" />
      <path
         d="m 78.850158,32.090847 0,1.699219 0,1.699219 -1.552747,-0.68358 -1.611316,-0.488295 -1.669931,-0.292955 -1.728506,-0.09767 -2.343757,0.205092 -1.679681,0.61522 -0.996098,1.025404 -0.332027,1.435534 0.239254,1.118175 0.717777,0.854481 1.440424,0.688486 2.407233,0.65917 0.615234,0.136719 0.615234,0.136719 3.271473,0.991219 2.158215,1.332999 1.215806,1.782233 0.405288,2.377924 -0.605483,2.729494 -1.816392,2.094724 -2.856456,1.333008 -3.764638,0.444336 -1.796881,-0.08789 -1.874994,-0.263671 -1.948245,-0.419922 -2.055661,-0.595703 0,-1.855469 0,-1.855469 1.977536,0.908206 1.948245,0.654294 1.923822,0.380861 1.904303,0.126952 2.246085,-0.214844 1.660165,-0.644531 1.025379,-1.054685 0.341808,-1.406253 -0.249035,-1.29394 -0.747058,-0.952154 -1.567392,-0.766595 -2.749015,-0.737311 -0.625,-0.146484 -0.625,-0.146485 -2.87598,-0.888664 -1.948238,-1.259773 -1.113283,-1.733389 -0.371092,-2.270517 0.546875,-2.734361 1.640625,-2.031264 2.646479,-1.25975 3.564458,-0.419938 1.933584,0.07326 1.816416,0.21971 1.689441,0.366227 1.552747,0.512679"
         id="path3051"
         inkscape:connector-curvature="0"
         sodipodi:nodetypes="ccccccccccccccccccccccccccccccccccccccccccccccccccccccccc" />
      <path
         d="m 95.705626,42.325222 c -2.903656,1.1e-5 -4.915373,0.332042 -6.035156,0.996094 -1.119798,0.664072 -1.679693,1.796883 -1.679687,3.398437 -6e-6,1.276047 0.41666,2.291671 1.25,3.046875 0.846346,0.742191 1.992178,1.113284 3.4375,1.113282 1.992175,2e-6 3.587225,-0.703122 4.785156,-2.109375 1.210921,-1.419265 1.816389,-3.300774 1.816406,-5.644532 l 0,-0.800781 -3.574219,0 m 7.167974,-1.484375 0,6.240234 0,6.240235 -1.79688,0 -1.796875,0 0,-1.660157 0,-1.660156 -1.381848,1.7334 -1.684558,1.215819 -2.041025,0.703125 -2.451163,0.234375 -3.017583,-0.46875 -2.333979,-1.40625 -1.479494,-2.211911 -0.493162,-2.846683 0.615234,-3.237297 1.845703,-2.329109 3.085932,-1.40624 4.296881,-0.46876 2.519531,0 2.519531,0 0,-0.175781 0,-0.175781 -0.410169,-2.197254 -1.230456,-1.630871 -1.953135,-1.025377 -2.617177,-0.341811 -1.850593,0.112319 -1.801751,0.3369 -1.743168,0.561537 -1.674801,0.786119 0,-1.660156 0,-1.660156 1.943355,-0.664047 1.88477,-0.468766 1.831047,-0.292952 1.782234,-0.09767 4.145497,0.615251 2.944352,1.845687 1.75779,3.095715 0.58596,4.365222"
         id="path3053"
         inkscape:connector-curvature="0"
         sodipodi:nodetypes="csscscsccccccccccccccccccccccccccccccccccccccccccc" />
      <path
         d="m 128.47906,40.118191 0,6.601563 0,6.601562 -1.79687,0 -1.79688,0 0,-6.542969 0,-6.542969 -0.30274,-2.714832 -0.90819,-1.933605 -1.51369,-1.157212 -2.11913,-0.385757 -2.60254,0.463881 -1.9873,1.391588 -1.25977,2.192392 -0.41992,2.866202 0,6.181641 0,6.18164 -1.80664,0 -1.80664,0 0,-10.9375 0,-10.9375 1.80664,0 1.80664,0 0,1.699218 0,1.699219 1.40136,-1.723617 1.62599,-1.225601 1.88964,-0.732406 2.15333,-0.244157 3.31053,0.585954 2.39259,1.757796 1.45018,2.87599 0.48341,3.979479"
         id="path3055"
         inkscape:connector-curvature="0"
         sodipodi:nodetypes="ccccccccccccccccccccccccccccccccc" />
      <path
         d="m 145.6275,42.325222 c -2.90366,1.1e-5 -4.91537,0.332042 -6.03515,0.996094 -1.1198,0.664072 -1.6797,1.796883 -1.67969,3.398437 -10e-6,1.276047 0.41666,2.291671 1.25,3.046875 0.84634,0.742191 1.99218,1.113284 3.4375,1.113282 1.99217,2e-6 3.58722,-0.703122 4.78515,-2.109375 1.21092,-1.419265 1.81639,-3.300774 1.81641,-5.644532 l 0,-0.800781 -3.57422,0 m 7.16797,-1.484375 0,6.240234 0,6.240235 -1.79688,0 -1.79687,0 0,-1.660157 0,-1.660156 -1.38185,1.7334 -1.68456,1.215819 -2.04102,0.703125 -2.45116,0.234375 -3.01759,-0.46875 -2.33398,-1.40625 -1.47949,-2.211911 -0.49316,-2.846683 0.61523,-3.237297 1.84571,-2.329109 3.08593,-1.40624 4.29688,-0.46876 2.51953,0 2.51953,0 0,-0.175781 0,-0.175781 -0.41017,-2.197254 -1.23045,-1.630871 -1.95314,-1.025377 -2.61718,-0.341811 -1.85059,0.112319 -1.80175,0.3369 -1.74317,0.561537 -1.6748,0.786119 0,-1.660156 0,-1.660156 1.94336,-0.664047 1.88477,-0.468766 1.83104,-0.292952 1.78224,-0.09767 4.14549,0.615251 2.94435,1.845687 1.7578,3.095715 0.58595,4.365222"
         id="path3057"
         inkscape:connector-curvature="0"
         sodipodi:nodetypes="csccscsccccccccccccccccccccccccccccccccccccccccccc" />
      <path
         d="m 194.94391,26.407253 0,2.080078 0,2.080079 -2.06057,-1.621076 -2.19724,-1.152362 -2.31935,-0.688457 -2.46581,-0.229512 -4.41407,0.766621 -3.24218,2.299786 -1.99219,3.730483 -0.66406,5.097642 0.66406,5.087897 1.99219,3.740228 3.24218,2.285158 4.41407,0.761717 2.46581,-0.229492 2.31935,-0.688477 2.19724,-1.15234 2.06057,-1.621098 0,2.060547 0,2.060547 -2.13381,1.23047 -2.26072,0.878905 -2.37306,0.527343 -2.50976,0.175782 -5.91797,-1.010741 -4.51171,-3.032228 -2.85645,-4.799798 -0.95215,-6.27442 0.95215,-6.284164 2.85645,-4.790055 4.51171,-3.046853 5.91797,-1.015647 2.53905,0.175803 2.38283,0.527322 2.25096,0.859396 2.10451,1.210916"
         id="path3059"
         inkscape:connector-curvature="0"
         sodipodi:nodetypes="ccccccccccccccccccccccccccccccccccccc" />
      <path
         d="m 209.39703,33.965847 c -1.92709,1.9e-5 -3.45053,0.755227 -4.57031,2.265625 -1.1198,1.497411 -1.67969,3.554701 -1.67969,6.171875 0,2.617196 0.55338,4.680996 1.66016,6.191406 1.11978,1.497399 2.64973,2.246096 4.58984,2.246094 1.91405,2e-6 3.43098,-0.755205 4.55078,-2.265625 1.11978,-1.51041 1.67967,-3.5677 1.67969,-6.171875 -2e-5,-2.591132 -0.55991,-4.641912 -1.67969,-6.152344 -1.1198,-1.523419 -2.63673,-2.285137 -4.55078,-2.285156 m 0,-3.046875 4.18456,0.761735 3.17872,2.28514 2.00682,3.632825 0.66897,4.804675 -0.66897,4.794927 -2.00682,3.642573 -3.17872,2.285156 -4.18456,0.761719 -4.19922,-0.761718 -3.18359,-2.285157 -1.99219,-3.642573 -0.66406,-4.794927 0.66406,-4.804675 1.99219,-3.632825 3.18359,-2.28514 4.19922,-0.761735"
         id="path3061"
         inkscape:connector-curvature="0"
         sodipodi:nodetypes="ccscsscccccccccccccccccccc" />
      <path
         d="m 243.55719,40.118191 0,6.601563 0,6.601562 -1.79688,0 -1.79687,0 0,-6.542969 0,-6.542969 -0.30275,-2.714832 -0.90819,-1.933605 -1.51368,-1.157212 -2.11913,-0.385757 -2.60255,0.463881 -1.98729,1.391588 -1.25978,2.192392 -0.41991,2.866202 0,6.181641 0,6.18164 -1.80664,0 -1.80664,0 0,-10.9375 0,-10.9375 1.80664,0 1.80664,0 0,1.699218 0,1.699219 1.40136,-1.723617 1.62598,-1.225601 1.88964,-0.732406 2.15333,-0.244157 3.31053,0.585954 2.3926,1.757796 1.45018,2.87599 0.48341,3.979479"
         id="path3063"
         inkscape:connector-curvature="0"
         sodipodi:nodetypes="ccccccccccccccccccccccccccccccccc" />
      <path
         d="m 254.31891,25.235378 0,3.105469 0,3.105469 3.70117,0 3.70117,0 0,1.396485 0,1.396484 -3.70117,0 -3.70117,0 0,5.9375 0,5.9375 0.18066,2.197269 0.54199,1.240231 1.11816,0.571291 1.87013,0.190427 1.8457,0 1.8457,0 0,1.503906 0,1.503907 -1.8457,0 -1.8457,0 -3.51563,-0.385742 -2.22656,-1.157227 -1.18653,-2.197263 -0.3955,-3.466799 0,-5.9375 0,-5.9375 -1.31836,0 -1.31836,0 0,-1.396484 0,-1.396485 1.31836,0 1.31836,0 0,-3.105469 0,-3.105469 1.80664,0 1.80664,0"
         id="path3065"
         inkscape:connector-curvature="0"
         sodipodi:nodetypes="ccccccccccccccccccccccccccccccccccccc" />
      <path
         d="m 266.46735,31.446316 1.79687,0 1.79688,0 0,10.9375 0,10.9375 -1.79688,0 -1.79687,0 0,-10.9375 0,-10.9375 m 0,-8.515625 1.79687,0 1.79688,0 0,2.27539 0,2.275391 -1.79688,0 -1.79687,0 0,-2.275391 0,-2.27539"
         id="path3067"
         inkscape:connector-curvature="0"
         sodipodi:nodetypes="cccccccccccccccccc" />
      <path
         d="m 295.74469,40.118191 0,6.601563 0,6.601562 -1.79688,0 -1.79687,0 0,-6.542969 0,-6.542969 -0.30275,-2.714832 -0.90819,-1.933605 -1.51368,-1.157212 -2.11913,-0.385757 -2.60255,0.463881 -1.98729,1.391588 -1.25978,2.192392 -0.41991,2.866202 0,6.181641 0,6.18164 -1.80664,0 -1.80664,0 0,-10.9375 0,-10.9375 1.80664,0 1.80664,0 0,1.699218 0,1.699219 1.40136,-1.723617 1.62598,-1.225601 1.88964,-0.732406 2.15333,-0.244157 3.31053,0.585954 2.3926,1.757796 1.45018,2.87599 0.48341,3.979479"
         id="path3069"
         inkscape:connector-curvature="0"
         sodipodi:nodetypes="ccccccccccccccccccccccccccccccccc" />
      <path
         d="m 311.42828,33.965847 c -1.92709,1.9e-5 -3.45053,0.755227 -4.57031,2.265625 -1.1198,1.497411 -1.67969,3.554701 -1.67969,6.171875 0,2.617196 0.55338,4.680996 1.66016,6.191406 1.11978,1.497399 2.64973,2.246096 4.58984,2.246094 1.91405,2e-6 3.43098,-0.755205 4.55078,-2.265625 1.11978,-1.51041 1.67967,-3.5677 1.67969,-6.171875 -2e-5,-2.591132 -0.55991,-4.641912 -1.67969,-6.152344 -1.1198,-1.523419 -2.63673,-2.285137 -4.55078,-2.285156 m 0,-3.046875 4.18456,0.761735 3.17872,2.28514 2.00682,3.632825 0.66897,4.804675 -0.66897,4.794927 -2.00682,3.642573 -3.17872,2.285156 -4.18456,0.761719 -4.19922,-0.761718 -3.18359,-2.285157 -1.99219,-3.642573 -0.66406,-4.794927 0.66406,-4.804675 1.99219,-3.632825 3.18359,-2.28514 4.19922,-0.761735"
         id="path3071"
         inkscape:connector-curvature="0"
         sodipodi:nodetypes="ccscsscccccccccccccccccccc" />
    </g>
  </g>
</svg>
