  0
SECTION
  2
HEADER
  9
$ACADVER
  1
AC1014
  9
$HANDSEED
  5
FFFF
  9
$MEASUREMENT
 70
     1
  0
ENDSEC
  0
SECTION
  2
TABLES
  0
TABLE
  2
VPORT
  5
8
330
0
100
AcDbSymbolTable
 70
     4
  0
VPORT
  5
2E
330
8
100
AcDbSymbolTableRecord
100
AcDbViewportTableRecord
  2
*ACTIVE
 70
     0
 10
0.0
 20
0.0
 11
1.0
 21
1.0
 12
210.0
 22
148.5
 13
0.0
 23
0.0
 14
10.0
 24
10.0
 15
10.0
 25
10.0
 16
0.0
 26
0.0
 36
1.0
 17
0.0
 27
0.0
 37
0.0
 40
341.0
 41
1.24
 42
50.0
 43
0.0
 44
0.0
 50
0.0
 51
0.0
 71
     0
 72
   100
 73
     1
 74
     3
 75
     0
 76
     0
 77
     0
 78
     0
  0
ENDTAB
  0
TABLE
  2
LTYPE
  5
5
330
0
100
AcDbSymbolTable
 70
     1
  0
LTYPE
  5
14
330
5
100
AcDbSymbolTableRecord
100
AcDbLinetypeTableRecord
  2
BYBLOCK
 70
     0
  3

 72
    65
 73
     0
 40
0.0
  0
LTYPE
  5
15
330
5
100
AcDbSymbolTableRecord
100
AcDbLinetypeTableRecord
  2
BYLAYER
 70
     0
  3

 72
    65
 73
     0
 40
0.0
  0
LTYPE
  5
16
330
5
100
AcDbSymbolTableRecord
100
AcDbLinetypeTableRecord
  2
CONTINUOUS
 70
     0
  3
Solid line
 72
    65
 73
     0
 40
0.0
  0
ENDTAB
  0
TABLE
  2
LAYER
  5
2
100
AcDbSymbolTable
 70
2
  0
LAYER
  5
50
100
AcDbSymbolTableRecord
100
AcDbLayerTableRecord
  2
0
 70
0
  6
CONTINUOUS
  0
LAYER
  5
51
100
AcDbSymbolTableRecord
100
AcDbLayerTableRecord
  2
Layer_1
 70
0
  6
CONTINUOUS
  0
ENDTAB
  0
TABLE
  2
STYLE
  5
3
330
0
100
AcDbSymbolTable
 70
     1
  0
STYLE
  5
11
330
3
100
AcDbSymbolTableRecord
100
AcDbTextStyleTableRecord
  2
STANDARD
 70
     0
 40
0.0
 41
1.0
 50
0.0
 71
     0
 42
2.5
  3
txt
  4

  0
ENDTAB
  0
TABLE
  2
VIEW
  5
6
330
0
100
AcDbSymbolTable
 70
     0
  0
ENDTAB
  0
TABLE
  2
UCS
  5
7
330
0
100
AcDbSymbolTable
 70
     0
  0
ENDTAB
  0
TABLE
  2
APPID
  5
9
330
0
100
AcDbSymbolTable
 70
     2
  0
APPID
  5
12
330
9
100
AcDbSymbolTableRecord
100
AcDbRegAppTableRecord
  2
ACAD
 70
     0
  0
ENDTAB
  0
TABLE
  2
DIMSTYLE
  5
A
330
0
100
AcDbSymbolTable
 70
     1
  0
DIMSTYLE
105
27
330
A
100
AcDbSymbolTableRecord
100
AcDbDimStyleTableRecord
  2
ISO-25
 70
     0
  3

  4

  5

  6

  7

 40
1.0
 41
2.5
 42
0.625
 43
3.75
 44
1.25
 45
0.0
 46
0.0
 47
0.0
 48
0.0
140
2.5
141
2.5
142
0.0
143
0.03937007874016
144
1.0
145
0.0
146
1.0
147
0.625
 71
     0
 72
     0
 73
     0
 74
     0
 75
     0
 76
     0
 77
     1
 78
     8
170
     0
171
     3
172
     1
173
     0
174
     0
175
     0
176
     0
177
     0
178
     0
270
     2
271
     2
272
     2
273
     2
274
     3
340
11
275
     0
280
     0
281
     0
282
     0
283
     0
284
     8
285
     0
286
     0
287
     3
288
     0
  0
ENDTAB
  0
TABLE
  2
BLOCK_RECORD
  5
1
330
0
100
AcDbSymbolTable
 70
     1
  0
BLOCK_RECORD
  5
1F
330
1
100
AcDbSymbolTableRecord
100
AcDbBlockTableRecord
  2
*MODEL_SPACE
  0
BLOCK_RECORD
  5
1B
330
1
100
AcDbSymbolTableRecord
100
AcDbBlockTableRecord
  2
*PAPER_SPACE
  0
ENDTAB
  0
ENDSEC
  0
SECTION
  2
BLOCKS
  0
BLOCK
  5
20
330
1F
100
AcDbEntity
  8
0
100
AcDbBlockBegin
  2
*MODEL_SPACE
 70
     0
 10
0.0
 20
0.0
 30
0.0
  3
*MODEL_SPACE
  1

  0
ENDBLK
  5
21
330
1F
100
AcDbEntity
  8
0
100
AcDbBlockEnd
  0
BLOCK
  5
1C
330
1B
100
AcDbEntity
 67
     1
  8
0
100
AcDbBlockBegin
  2
*PAPER_SPACE
  1

  0
ENDBLK
  5
1D
330
1B
100
AcDbEntity
 67
     1
  8
0
100
AcDbBlockEnd
  0
ENDSEC
  0
SECTION
  2
ENTITIES
  0
LWPOLYLINE
  5
100
100
AcDbEntity
  8
Layer_1
 62
7
100
AcDbPolyline
 90
57
 70
0
 10
15.328126
 20
55.015625
 30
0.0
 10
15.328126
 20
53.476562
 30
0.0
 10
15.328126
 20
51.937500
 30
0.0
 10
13.582020
 20
52.687485
 30
0.0
 10
11.937500
 20
53.218750
 30
0.0
 10
10.371085
 20
53.535140
 30
0.0
 10
8.859375
 20
53.640625
 30
0.0
 10
6.574213
 20
53.390609
 30
0.0
 10
4.875000
 20
52.640625
 30
0.0
 10
3.832027
 20
51.429673
 30
0.0
 10
3.484375
 20
49.796874
 30
0.0
 10
3.719326
 20
48.457452
 30
0.0
 10
4.406250
 20
47.453125
 30
0.0
 10
6.056954
 20
46.620347
 30
0.0
 10
7.937500
 20
46.187500
 30
0.0
 10
9.124842
 20
45.926575
 30
0.0
 10
9.843750
 20
45.796874
 30
0.0
 10
12.910146
 20
44.867178
 30
0.0
 10
15.046875
 20
43.421874
 30
0.0
 10
16.312486
 20
41.445306
 30
0.0
 10
16.734375
 20
38.890625
 30
0.0
 10
16.164049
 20
35.910154
 30
0.0
 10
14.453126
 20
33.750000
 30
0.0
 10
11.656240
 20
32.437500
 30
0.0
 10
7.796875
 20
32.000000
 30
0.0
 10
6.085932
 20
32.093750
 30
0.0
 10
4.265626
 20
32.375000
 30
0.0
 10
2.371090
 20
32.839843
 30
0.0
 10
0.406250
 20
33.484374
 30
0.0
 10
0.406250
 20
35.109374
 30
0.0
 10
0.406250
 20
36.734374
 30
0.0
 10
2.308591
 20
35.789059
 30
0.0
 10
4.171875
 20
35.109374
 30
0.0
 10
5.999995
 20
34.699219
 30
0.0
 10
7.796875
 20
34.562500
 30
0.0
 10
10.191398
 20
34.828126
 30
0.0
 10
11.968750
 20
35.625000
 30
0.0
 10
13.070304
 20
36.914055
 30
0.0
 10
13.437500
 20
38.656250
 30
0.0
 10
13.171864
 20
40.187494
 30
0.0
 10
12.375000
 20
41.343750
 30
0.0
 10
10.988272
 20
42.191398
 30
0.0
 10
8.921875
 20
42.796874
 30
0.0
 10
7.960938
 20
42.984374
 30
0.0
 10
7.000000
 20
43.171874
 30
0.0
 10
3.957027
 20
44.074210
 30
0.0
 10
1.890626
 20
45.375000
 30
0.0
 10
0.707030
 20
47.167958
 30
0.0
 10
0.312500
 20
49.546874
 30
0.0
 10
0.855469
 20
52.312484
 30
0.0
 10
2.484375
 20
54.421874
 30
0.0
 10
5.082026
 20
55.757794
 30
0.0
 10
8.500000
 20
56.203125
 30
0.0
 10
10.156242
 20
56.128885
 30
0.0
 10
11.843750
 20
55.906246
 30
0.0
 10
13.566395
 20
55.535135
 30
0.0
 10
15.328126
 20
55.015622
 30
0.0
  0
LWPOLYLINE
  5
101
100
AcDbEntity
  8
Layer_1
 62
7
100
AcDbPolyline
 90
33
 70
0
 10
21.234375
 20
39.359374
 30
0.0
 10
21.234375
 20
44.656250
 30
0.0
 10
21.234375
 20
49.953125
 30
0.0
 10
22.671875
 20
49.953125
 30
0.0
 10
24.109375
 20
49.953125
 30
0.0
 10
24.109375
 20
44.710938
 30
0.0
 10
24.109375
 20
39.468750
 30
0.0
 10
24.351558
 20
37.292965
 30
0.0
 10
25.078126
 20
35.734374
 30
0.0
 10
26.289057
 20
34.808591
 30
0.0
 10
27.984375
 20
34.500000
 30
0.0
 10
30.066398
 20
34.871094
 30
0.0
 10
31.656250
 20
35.984374
 30
0.0
 10
32.675770
 20
37.738277
 30
0.0
 10
33.015626
 20
40.031250
 30
0.0
 10
33.015626
 20
44.992187
 30
0.0
 10
33.015626
 20
49.953125
 30
0.0
 10
34.453126
 20
49.953125
 30
0.0
 10
35.890626
 20
49.953125
 30
0.0
 10
35.890626
 20
41.203125
 30
0.0
 10
35.890626
 20
32.453125
 30
0.0
 10
34.453126
 20
32.453125
 30
0.0
 10
33.015626
 20
32.453125
 30
0.0
 10
33.015626
 20
33.796874
 30
0.0
 10
33.015626
 20
35.140625
 30
0.0
 10
31.882802
 20
33.749998
 30
0.0
 10
30.578126
 20
32.765625
 30
0.0
 10
29.089836
 20
32.191406
 30
0.0
 10
27.375000
 20
32.000000
 30
0.0
 10
24.722652
 20
32.468750
 30
0.0
 10
22.796875
 20
33.875000
 30
0.0
 10
21.625001
 20
36.183593
 30
0.0
 10
21.234375
 20
39.359374
 30
0.0
  0
LWPOLYLINE
  5
102
100
AcDbEntity
  8
Layer_1
 62
7
100
AcDbPolyline
 90
2
 70
0
 10
28.468750
 20
50.375000
 30
0.0
 10
28.468750
 20
50.375000
 30
0.0
  0
LWPOLYLINE
  5
103
100
AcDbEntity
  8
Layer_1
 62
7
100
AcDbPolyline
 90
57
 70
0
 10
53.000000
 20
49.437500
 30
0.0
 10
53.000000
 20
48.078125
 30
0.0
 10
53.000000
 20
46.718750
 30
0.0
 10
51.757803
 20
47.265614
 30
0.0
 10
50.468750
 20
47.656250
 30
0.0
 10
49.132805
 20
47.890613
 30
0.0
 10
47.750000
 20
47.968749
 30
0.0
 10
45.874995
 20
47.804674
 30
0.0
 10
44.531250
 20
47.312499
 30
0.0
 10
43.734372
 20
46.492176
 30
0.0
 10
43.468750
 20
45.343749
 30
0.0
 10
43.660153
 20
44.449209
 30
0.0
 10
44.234375
 20
43.765624
 30
0.0
 10
45.386714
 20
43.214834
 30
0.0
 10
47.312500
 20
42.687499
 30
0.0
 10
47.804687
 20
42.578124
 30
0.0
 10
48.296875
 20
42.468749
 30
0.0
 10
50.914054
 20
41.675773
 30
0.0
 10
52.640626
 20
40.609374
 30
0.0
 10
53.613270
 20
39.183587
 30
0.0
 10
53.937500
 20
37.281249
 30
0.0
 10
53.453114
 20
35.097654
 30
0.0
 10
52.000000
 20
33.421874
 30
0.0
 10
49.714836
 20
32.355468
 30
0.0
 10
46.703126
 20
31.999999
 30
0.0
 10
45.265621
 20
32.070311
 30
0.0
 10
43.765626
 20
32.281248
 30
0.0
 10
42.207029
 20
32.617186
 30
0.0
 10
40.562500
 20
33.093748
 30
0.0
 10
40.562500
 20
34.578123
 30
0.0
 10
40.562500
 20
36.062498
 30
0.0
 10
42.144529
 20
35.335934
 30
0.0
 10
43.703126
 20
34.812498
 30
0.0
 10
45.242183
 20
34.507809
 30
0.0
 10
46.765626
 20
34.406248
 30
0.0
 10
48.562493
 20
34.578123
 30
0.0
 10
49.890626
 20
35.093748
 30
0.0
 10
50.710929
 20
35.937495
 30
0.0
 10
50.984375
 20
37.062498
 30
0.0
 10
50.785147
 20
38.097650
 30
0.0
 10
50.187500
 20
38.859373
 30
0.0
 10
48.933586
 20
39.472649
 30
0.0
 10
46.734375
 20
40.062498
 30
0.0
 10
46.234375
 20
40.179686
 30
0.0
 10
45.734375
 20
40.296873
 30
0.0
 10
43.433590
 20
41.007804
 30
0.0
 10
41.875000
 20
42.015623
 30
0.0
 10
40.984374
 20
43.402334
 30
0.0
 10
40.687500
 20
45.218748
 30
0.0
 10
41.125000
 20
47.406237
 30
0.0
 10
42.437500
 20
49.031248
 30
0.0
 10
44.554683
 20
50.039047
 30
0.0
 10
47.406250
 20
50.374998
 30
0.0
 10
48.953118
 20
50.316390
 30
0.0
 10
50.406250
 20
50.140623
 30
0.0
 10
51.757803
 20
49.847642
 30
0.0
 10
53.000000
 20
49.437498
 30
0.0
  0
LWPOLYLINE
  5
104
100
AcDbEntity
  8
Layer_1
 62
7
100
AcDbPolyline
 90
17
 70
0
 10
66.484375
 20
41.250000
 30
0.0
 10
63.535150
 20
41.050774
 30
0.0
 10
61.656250
 20
40.453125
 30
0.0
 10
60.648433
 20
39.374997
 30
0.0
 10
60.312500
 20
37.734374
 30
0.0
 10
60.562500
 20
36.359371
 30
0.0
 10
61.312500
 20
35.296874
 30
0.0
 10
62.507807
 20
34.628904
 30
0.0
 10
64.062500
 20
34.406250
 30
0.0
 10
66.214836
 20
34.828125
 30
0.0
 10
67.890629
 20
36.093750
 30
0.0
 10
68.980461
 20
38.074214
 30
0.0
 10
69.343749
 20
40.609374
 30
0.0
 10
69.343749
 20
40.929687
 30
0.0
 10
69.343749
 20
41.250000
 30
0.0
 10
67.914061
 20
41.250000
 30
0.0
 10
66.484375
 20
41.250000
 30
0.0
  0
LWPOLYLINE
  5
105
100
AcDbEntity
  8
Layer_1
 62
7
100
AcDbPolyline
 90
41
 70
0
 10
72.218749
 20
42.437500
 30
0.0
 10
72.218749
 20
37.445313
 30
0.0
 10
72.218749
 20
32.453125
 30
0.0
 10
70.781245
 20
32.453125
 30
0.0
 10
69.343749
 20
32.453125
 30
0.0
 10
69.343749
 20
33.781250
 30
0.0
 10
69.343749
 20
35.109374
 30
0.0
 10
68.238269
 20
33.722655
 30
0.0
 10
66.890626
 20
32.750000
 30
0.0
 10
65.257806
 20
32.187500
 30
0.0
 10
63.296875
 20
32.000000
 30
0.0
 10
60.882809
 20
32.375000
 30
0.0
 10
59.015626
 20
33.500000
 30
0.0
 10
57.832030
 20
35.269529
 30
0.0
 10
57.437500
 20
37.546874
 30
0.0
 10
57.929687
 20
40.136713
 30
0.0
 10
59.406250
 20
42.000000
 30
0.0
 10
61.874995
 20
43.124992
 30
0.0
 10
65.312500
 20
43.500000
 30
0.0
 10
67.328124
 20
43.500000
 30
0.0
 10
69.343749
 20
43.500000
 30
0.0
 10
69.343749
 20
43.640625
 30
0.0
 10
69.343749
 20
43.781250
 30
0.0
 10
69.015613
 20
45.539052
 30
0.0
 10
68.031253
 20
46.843750
 30
0.0
 10
66.468742
 20
47.664050
 30
0.0
 10
64.375000
 20
47.937500
 30
0.0
 10
62.894526
 20
47.847644
 30
0.0
 10
61.453126
 20
47.578125
 30
0.0
 10
60.058590
 20
47.128895
 30
0.0
 10
58.718750
 20
46.500000
 30
0.0
 10
58.718750
 20
47.828125
 30
0.0
 10
58.718750
 20
49.156250
 30
0.0
 10
60.273434
 20
49.687486
 30
0.0
 10
61.781250
 20
50.062500
 30
0.0
 10
63.246088
 20
50.296862
 30
0.0
 10
64.671875
 20
50.374998
 30
0.0
 10
67.988269
 20
49.882797
 30
0.0
 10
70.343749
 20
48.406247
 30
0.0
 10
71.749989
 20
45.929674
 30
0.0
 10
72.218749
 20
42.437498
 30
0.0
  0
LWPOLYLINE
  5
106
100
AcDbEntity
  8
Layer_1
 62
7
100
AcDbPolyline
 90
33
 70
0
 10
92.703125
 20
43.015625
 30
0.0
 10
92.703125
 20
37.734375
 30
0.0
 10
92.703125
 20
32.453125
 30
0.0
 10
91.265621
 20
32.453125
 30
0.0
 10
89.828125
 20
32.453125
 30
0.0
 10
89.828125
 20
37.687500
 30
0.0
 10
89.828125
 20
42.921874
 30
0.0
 10
89.585925
 20
45.093740
 30
0.0
 10
88.859373
 20
46.640625
 30
0.0
 10
87.648429
 20
47.566394
 30
0.0
 10
85.953125
 20
47.875000
 30
0.0
 10
83.871085
 20
47.503894
 30
0.0
 10
82.281253
 20
46.390625
 30
0.0
 10
81.273429
 20
44.636711
 30
0.0
 10
80.937501
 20
42.343750
 30
0.0
 10
80.937501
 20
37.398438
 30
0.0
 10
80.937501
 20
32.453125
 30
0.0
 10
79.492189
 20
32.453125
 30
0.0
 10
78.046877
 20
32.453125
 30
0.0
 10
78.046877
 20
41.203125
 30
0.0
 10
78.046877
 20
49.953125
 30
0.0
 10
79.492189
 20
49.953125
 30
0.0
 10
80.937501
 20
49.953125
 30
0.0
 10
80.937501
 20
48.593750
 30
0.0
 10
80.937501
 20
47.234374
 30
0.0
 10
82.058589
 20
48.613269
 30
0.0
 10
83.359373
 20
49.593750
 30
0.0
 10
84.871085
 20
50.179674
 30
0.0
 10
86.593749
 20
50.375000
 30
0.0
 10
89.242181
 20
49.906237
 30
0.0
 10
91.156253
 20
48.500000
 30
0.0
 10
92.316397
 20
46.199208
 30
0.0
 10
92.703125
 20
43.015625
 30
0.0
  0
LWPOLYLINE
  5
107
100
AcDbEntity
  8
Layer_1
 62
7
100
AcDbPolyline
 90
17
 70
0
 10
106.421877
 20
41.250000
 30
0.0
 10
103.472645
 20
41.050774
 30
0.0
 10
101.593749
 20
40.453125
 30
0.0
 10
100.585933
 20
39.374996
 30
0.0
 10
100.249997
 20
37.734374
 30
0.0
 10
100.499997
 20
36.359371
 30
0.0
 10
101.249997
 20
35.296874
 30
0.0
 10
102.445309
 20
34.628904
 30
0.0
 10
103.999997
 20
34.406250
 30
0.0
 10
106.152333
 20
34.828125
 30
0.0
 10
107.828125
 20
36.093750
 30
0.0
 10
108.917957
 20
38.074214
 30
0.0
 10
109.281253
 20
40.609374
 30
0.0
 10
109.281253
 20
40.929687
 30
0.0
 10
109.281253
 20
41.250000
 30
0.0
 10
107.851565
 20
41.250000
 30
0.0
 10
106.421877
 20
41.250000
 30
0.0
  0
LWPOLYLINE
  5
108
100
AcDbEntity
  8
Layer_1
 62
7
100
AcDbPolyline
 90
41
 70
0
 10
112.156253
 20
42.437500
 30
0.0
 10
112.156253
 20
37.445313
 30
0.0
 10
112.156253
 20
32.453125
 30
0.0
 10
110.718749
 20
32.453125
 30
0.0
 10
109.281253
 20
32.453125
 30
0.0
 10
109.281253
 20
33.781250
 30
0.0
 10
109.281253
 20
35.109374
 30
0.0
 10
108.175773
 20
33.722655
 30
0.0
 10
106.828125
 20
32.750000
 30
0.0
 10
105.195301
 20
32.187500
 30
0.0
 10
103.234373
 20
32.000000
 30
0.0
 10
100.820309
 20
32.375000
 30
0.0
 10
98.953125
 20
33.500000
 30
0.0
 10
97.769525
 20
35.269529
 30
0.0
 10
97.374997
 20
37.546874
 30
0.0
 10
97.867181
 20
40.136713
 30
0.0
 10
99.343749
 20
42.000000
 30
0.0
 10
101.812493
 20
43.124992
 30
0.0
 10
105.249997
 20
43.500000
 30
0.0
 10
107.265621
 20
43.500000
 30
0.0
 10
109.281253
 20
43.500000
 30
0.0
 10
109.281253
 20
43.640625
 30
0.0
 10
109.281253
 20
43.781250
 30
0.0
 10
108.953117
 20
45.539052
 30
0.0
 10
107.968749
 20
46.843750
 30
0.0
 10
106.406245
 20
47.664050
 30
0.0
 10
104.312501
 20
47.937500
 30
0.0
 10
102.832029
 20
47.847644
 30
0.0
 10
101.390629
 20
47.578125
 30
0.0
 10
99.996093
 20
47.128895
 30
0.0
 10
98.656253
 20
46.500000
 30
0.0
 10
98.656253
 20
47.828125
 30
0.0
 10
98.656253
 20
49.156250
 30
0.0
 10
100.210941
 20
49.687486
 30
0.0
 10
101.718749
 20
50.062500
 30
0.0
 10
103.183589
 20
50.296862
 30
0.0
 10
104.609373
 20
50.374998
 30
0.0
 10
107.925773
 20
49.882797
 30
0.0
 10
110.281253
 20
48.406247
 30
0.0
 10
111.687493
 20
45.929674
 30
0.0
 10
112.156253
 20
42.437498
 30
0.0
  0
LWPOLYLINE
  5
109
100
AcDbEntity
  8
Layer_1
 62
7
100
AcDbPolyline
 90
37
 70
0
 10
18.812500
 20
21.984374
 30
0.0
 10
18.812500
 20
20.320312
 30
0.0
 10
18.812500
 20
18.656250
 30
0.0
 10
17.164049
 20
19.953110
 30
0.0
 10
15.406250
 20
20.875000
 30
0.0
 10
13.550770
 20
21.425766
 30
0.0
 10
11.578126
 20
21.609374
 30
0.0
 10
8.046868
 20
20.996078
 30
0.0
 10
5.453126
 20
19.156250
 30
0.0
 10
3.859371
 20
16.171862
 30
0.0
 10
3.328126
 20
12.093750
 30
0.0
 10
3.859375
 20
8.023432
 30
0.0
 10
5.453126
 20
5.031250
 30
0.0
 10
8.046868
 20
3.203122
 30
0.0
 10
11.578126
 20
2.593750
 30
0.0
 10
13.550770
 20
2.777343
 30
0.0
 10
15.406250
 20
3.328125
 30
0.0
 10
17.164049
 20
4.249997
 30
0.0
 10
18.812500
 20
5.546874
 30
0.0
 10
18.812500
 20
3.898438
 30
0.0
 10
18.812500
 20
2.250000
 30
0.0
 10
17.105455
 20
1.265624
 30
0.0
 10
15.296875
 20
0.562500
 30
0.0
 10
13.398426
 20
0.140625
 30
0.0
 10
11.390626
 20
0.000000
 30
0.0
 10
6.656244
 20
0.808594
 30
0.0
 10
3.046875
 20
3.234374
 30
0.0
 10
0.761717
 20
7.074214
 30
0.0
 10
0.000000
 20
12.093750
 30
0.0
 10
0.761718
 20
17.121081
 30
0.0
 10
3.046875
 20
20.953125
 30
0.0
 10
6.656244
 20
23.390607
 30
0.0
 10
11.390626
 20
24.203125
 30
0.0
 10
13.421864
 20
24.062482
 30
0.0
 10
15.328126
 20
23.640625
 30
0.0
 10
17.128892
 20
22.953108
 30
0.0
 10
18.812500
 20
21.984374
 30
0.0
  0
LWPOLYLINE
  5
10a
100
AcDbEntity
  8
Layer_1
 62
7
100
AcDbPolyline
 90
17
 70
0
 10
30.375000
 20
15.937500
 30
0.0
 10
28.304682
 20
15.484363
 30
0.0
 10
26.718750
 20
14.125000
 30
0.0
 10
25.710934
 20
11.992178
 30
0.0
 10
25.375000
 20
9.187500
 30
0.0
 10
25.707031
 20
6.378902
 30
0.0
 10
26.703126
 20
4.234374
 30
0.0
 10
28.292963
 20
2.886717
 30
0.0
 10
30.375000
 20
2.437500
 30
0.0
 10
32.433585
 20
2.890625
 30
0.0
 10
34.015626
 20
4.250000
 30
0.0
 10
35.023432
 20
6.390617
 30
0.0
 10
35.359375
 20
9.187500
 30
0.0
 10
35.023427
 20
11.972647
 30
0.0
 10
34.015626
 20
14.109374
 30
0.0
 10
32.433585
 20
15.480457
 30
0.0
 10
30.375000
 20
15.937500
 30
0.0
  0
LWPOLYLINE
  5
10b
100
AcDbEntity
  8
Layer_1
 62
7
100
AcDbPolyline
 90
17
 70
0
 10
30.375000
 20
18.375000
 30
0.0
 10
33.722646
 20
17.765611
 30
0.0
 10
36.265626
 20
15.937500
 30
0.0
 10
37.871081
 20
13.031240
 30
0.0
 10
38.406250
 20
9.187500
 30
0.0
 10
37.871081
 20
5.351558
 30
0.0
 10
36.265626
 20
2.437500
 30
0.0
 10
33.722646
 20
0.609374
 30
0.0
 10
30.375000
 20
-0.000000
 30
0.0
 10
27.015620
 20
0.609374
 30
0.0
 10
24.468750
 20
2.437500
 30
0.0
 10
22.874998
 20
5.351558
 30
0.0
 10
22.343750
 20
9.187500
 30
0.0
 10
22.875000
 20
13.031240
 30
0.0
 10
24.468750
 20
15.937500
 30
0.0
 10
27.015620
 20
17.765611
 30
0.0
 10
30.375000
 20
18.375000
 30
0.0
  0
LWPOLYLINE
  5
10c
100
AcDbEntity
  8
Layer_1
 62
7
100
AcDbPolyline
 90
33
 70
0
 10
57.703126
 20
11.015625
 30
0.0
 10
57.703126
 20
5.734374
 30
0.0
 10
57.703126
 20
0.453125
 30
0.0
 10
56.265626
 20
0.453125
 30
0.0
 10
54.828126
 20
0.453125
 30
0.0
 10
54.828126
 20
5.687500
 30
0.0
 10
54.828126
 20
10.921874
 30
0.0
 10
54.585927
 20
13.093740
 30
0.0
 10
53.859375
 20
14.640625
 30
0.0
 10
52.648428
 20
15.566394
 30
0.0
 10
50.953126
 20
15.875000
 30
0.0
 10
48.871087
 20
15.503894
 30
0.0
 10
47.281250
 20
14.390625
 30
0.0
 10
46.273431
 20
12.636711
 30
0.0
 10
45.937500
 20
10.343750
 30
0.0
 10
45.937500
 20
5.398438
 30
0.0
 10
45.937500
 20
0.453125
 30
0.0
 10
44.492188
 20
0.453125
 30
0.0
 10
43.046875
 20
0.453125
 30
0.0
 10
43.046875
 20
9.203125
 30
0.0
 10
43.046875
 20
17.953125
 30
0.0
 10
44.492188
 20
17.953125
 30
0.0
 10
45.937500
 20
17.953125
 30
0.0
 10
45.937500
 20
16.593750
 30
0.0
 10
45.937500
 20
15.234374
 30
0.0
 10
47.058589
 20
16.613269
 30
0.0
 10
48.359375
 20
17.593750
 30
0.0
 10
49.871086
 20
18.179674
 30
0.0
 10
51.593750
 20
18.375000
 30
0.0
 10
54.242178
 20
17.906237
 30
0.0
 10
56.156250
 20
16.500000
 30
0.0
 10
57.316394
 20
14.199208
 30
0.0
 10
57.703126
 20
11.015625
 30
0.0
  0
LWPOLYLINE
  5
10d
100
AcDbEntity
  8
Layer_1
 62
7
100
AcDbPolyline
 90
37
 70
0
 10
66.312500
 20
22.921874
 30
0.0
 10
66.312500
 20
20.437500
 30
0.0
 10
66.312500
 20
17.953125
 30
0.0
 10
69.273437
 20
17.953125
 30
0.0
 10
72.234373
 20
17.953125
 30
0.0
 10
72.234373
 20
16.835938
 30
0.0
 10
72.234373
 20
15.718750
 30
0.0
 10
69.273437
 20
15.718750
 30
0.0
 10
66.312500
 20
15.718750
 30
0.0
 10
66.312500
 20
10.968750
 30
0.0
 10
66.312500
 20
6.218750
 30
0.0
 10
66.457027
 20
4.460934
 30
0.0
 10
66.890626
 20
3.468750
 30
0.0
 10
67.785149
 20
3.011716
 30
0.0
 10
69.281253
 20
2.859374
 30
0.0
 10
70.757813
 20
2.859374
 30
0.0
 10
72.234373
 20
2.859374
 30
0.0
 10
72.234373
 20
1.656250
 30
0.0
 10
72.234373
 20
0.453125
 30
0.0
 10
70.757813
 20
0.453125
 30
0.0
 10
69.281253
 20
0.453125
 30
0.0
 10
66.468746
 20
0.761718
 30
0.0
 10
64.687500
 20
1.687500
 30
0.0
 10
63.738279
 20
3.445310
 30
0.0
 10
63.421875
 20
6.218750
 30
0.0
 10
63.421875
 20
10.968750
 30
0.0
 10
63.421875
 20
15.718750
 30
0.0
 10
62.367187
 20
15.718750
 30
0.0
 10
61.312500
 20
15.718750
 30
0.0
 10
61.312500
 20
16.835938
 30
0.0
 10
61.312500
 20
17.953125
 30
0.0
 10
62.367187
 20
17.953125
 30
0.0
 10
63.421875
 20
17.953125
 30
0.0
 10
63.421875
 20
20.437500
 30
0.0
 10
63.421875
 20
22.921874
 30
0.0
 10
64.867187
 20
22.921874
 30
0.0
 10
66.312500
 20
22.921874
 30
0.0
  0
LWPOLYLINE
  5
10e
100
AcDbEntity
  8
Layer_1
 62
7
100
AcDbPolyline
 90
9
 70
0
 10
76.031253
 20
17.953125
 30
0.0
 10
77.468757
 20
17.953125
 30
0.0
 10
78.906253
 20
17.953125
 30
0.0
 10
78.906253
 20
9.203125
 30
0.0
 10
78.906253
 20
0.453125
 30
0.0
 10
77.468757
 20
0.453125
 30
0.0
 10
76.031253
 20
0.453125
 30
0.0
 10
76.031253
 20
9.203125
 30
0.0
 10
76.031253
 20
17.953125
 30
0.0
  0
LWPOLYLINE
  5
10f
100
AcDbEntity
  8
Layer_1
 62
7
100
AcDbPolyline
 90
9
 70
0
 10
76.031253
 20
24.765625
 30
0.0
 10
77.468757
 20
24.765625
 30
0.0
 10
78.906253
 20
24.765625
 30
0.0
 10
78.906253
 20
22.945312
 30
0.0
 10
78.906253
 20
21.125000
 30
0.0
 10
77.468757
 20
21.125000
 30
0.0
 10
76.031253
 20
21.125000
 30
0.0
 10
76.031253
 20
22.945312
 30
0.0
 10
76.031253
 20
24.765625
 30
0.0
  0
LWPOLYLINE
  5
110
100
AcDbEntity
  8
Layer_1
 62
7
100
AcDbPolyline
 90
33
 70
0
 10
99.453125
 20
11.015625
 30
0.0
 10
99.453125
 20
5.734374
 30
0.0
 10
99.453125
 20
0.453125
 30
0.0
 10
98.015621
 20
0.453125
 30
0.0
 10
96.578125
 20
0.453125
 30
0.0
 10
96.578125
 20
5.687500
 30
0.0
 10
96.578125
 20
10.921874
 30
0.0
 10
96.335925
 20
13.093740
 30
0.0
 10
95.609373
 20
14.640625
 30
0.0
 10
94.398429
 20
15.566394
 30
0.0
 10
92.703125
 20
15.875000
 30
0.0
 10
90.621085
 20
15.503894
 30
0.0
 10
89.031253
 20
14.390625
 30
0.0
 10
88.023429
 20
12.636711
 30
0.0
 10
87.687501
 20
10.343750
 30
0.0
 10
87.687501
 20
5.398438
 30
0.0
 10
87.687501
 20
0.453125
 30
0.0
 10
86.242189
 20
0.453125
 30
0.0
 10
84.796877
 20
0.453125
 30
0.0
 10
84.796877
 20
9.203125
 30
0.0
 10
84.796877
 20
17.953125
 30
0.0
 10
86.242189
 20
17.953125
 30
0.0
 10
87.687501
 20
17.953125
 30
0.0
 10
87.687501
 20
16.593750
 30
0.0
 10
87.687501
 20
15.234374
 30
0.0
 10
88.808589
 20
16.613269
 30
0.0
 10
90.109373
 20
17.593750
 30
0.0
 10
91.621085
 20
18.179674
 30
0.0
 10
93.343749
 20
18.375000
 30
0.0
 10
95.992181
 20
17.906237
 30
0.0
 10
97.906253
 20
16.500000
 30
0.0
 10
99.066397
 20
14.199208
 30
0.0
 10
99.453125
 20
11.015625
 30
0.0
  0
LWPOLYLINE
  5
111
100
AcDbEntity
  8
Layer_1
 62
7
100
AcDbPolyline
 90
17
 70
0
 10
111.999997
 20
15.937500
 30
0.0
 10
109.929677
 20
15.484363
 30
0.0
 10
108.343749
 20
14.125000
 30
0.0
 10
107.335933
 20
11.992178
 30
0.0
 10
106.999997
 20
9.187500
 30
0.0
 10
107.332029
 20
6.378902
 30
0.0
 10
108.328125
 20
4.234374
 30
0.0
 10
109.917965
 20
2.886717
 30
0.0
 10
111.999997
 20
2.437500
 30
0.0
 10
114.058589
 20
2.890625
 30
0.0
 10
115.640629
 20
4.250000
 30
0.0
 10
116.648429
 20
6.390621
 30
0.0
 10
116.984373
 20
9.187500
 30
0.0
 10
116.648429
 20
11.972647
 30
0.0
 10
115.640629
 20
14.109374
 30
0.0
 10
114.058581
 20
15.480457
 30
0.0
 10
111.999997
 20
15.937500
 30
0.0
  0
LWPOLYLINE
  5
112
100
AcDbEntity
  8
Layer_1
 62
7
100
AcDbPolyline
 90
17
 70
0
 10
111.999997
 20
18.375000
 30
0.0
 10
115.347645
 20
17.765611
 30
0.0
 10
117.890629
 20
15.937500
 30
0.0
 10
119.496077
 20
13.031240
 30
0.0
 10
120.031253
 20
9.187500
 30
0.0
 10
119.496077
 20
5.351558
 30
0.0
 10
117.890629
 20
2.437500
 30
0.0
 10
115.347645
 20
0.609374
 30
0.0
 10
111.999997
 20
-0.000000
 30
0.0
 10
108.640621
 20
0.609374
 30
0.0
 10
106.093749
 20
2.437500
 30
0.0
 10
104.499997
 20
5.351558
 30
0.0
 10
103.968749
 20
9.187500
 30
0.0
 10
104.499997
 20
13.031240
 30
0.0
 10
106.093749
 20
15.937500
 30
0.0
 10
108.640621
 20
17.765611
 30
0.0
 10
111.999997
 20
18.375000
 30
0.0
  0
ENDSEC
  0
SECTION
  2
OBJECTS
  0
DICTIONARY
  5
C
330
0
100
AcDbDictionary
  3
ACAD_GROUP
350
D
  3
ACAD_MLINESTYLE
350
17
  0
DICTIONARY
  5
D
330
C
100
AcDbDictionary
  0
DICTIONARY
  5
1A
330
C
100
AcDbDictionary
  0
DICTIONARY
  5
17
330
C
100
AcDbDictionary
  3
STANDARD
350
18
  0
DICTIONARY
  5
19
330
C
100
AcDbDictionary
  0
ENDSEC
  0
EOF
