  0
SECTION
  2
HEADER
  9
$ACADVER
  1
AC1014
  9
$HANDSEED
  5
FFFF
  9
$MEASUREMENT
 70
     1
  0
ENDSEC
  0
SECTION
  2
TABLES
  0
TABLE
  2
VPORT
  5
8
330
0
100
AcDbSymbolTable
 70
     4
  0
VPORT
  5
2E
330
8
100
AcDbSymbolTableRecord
100
AcDbViewportTableRecord
  2
*ACTIVE
 70
     0
 10
0.0
 20
0.0
 11
1.0
 21
1.0
 12
210.0
 22
148.5
 13
0.0
 23
0.0
 14
10.0
 24
10.0
 15
10.0
 25
10.0
 16
0.0
 26
0.0
 36
1.0
 17
0.0
 27
0.0
 37
0.0
 40
341.0
 41
1.24
 42
50.0
 43
0.0
 44
0.0
 50
0.0
 51
0.0
 71
     0
 72
   100
 73
     1
 74
     3
 75
     0
 76
     0
 77
     0
 78
     0
  0
ENDTAB
  0
TABLE
  2
LTYPE
  5
5
330
0
100
AcDbSymbolTable
 70
     1
  0
LTYPE
  5
14
330
5
100
AcDbSymbolTableRecord
100
AcDbLinetypeTableRecord
  2
BYBLOCK
 70
     0
  3

 72
    65
 73
     0
 40
0.0
  0
LTYPE
  5
15
330
5
100
AcDbSymbolTableRecord
100
AcDbLinetypeTableRecord
  2
BYLAYER
 70
     0
  3

 72
    65
 73
     0
 40
0.0
  0
LTYPE
  5
16
330
5
100
AcDbSymbolTableRecord
100
AcDbLinetypeTableRecord
  2
CONTINUOUS
 70
     0
  3
Solid line
 72
    65
 73
     0
 40
0.0
  0
ENDTAB
  0
TABLE
  2
LAYER
  5
2
100
AcDbSymbolTable
 70
2
  0
LAYER
  5
50
100
AcDbSymbolTableRecord
100
AcDbLayerTableRecord
  2
0
 70
0
  6
CONTINUOUS
  0
LAYER
  5
51
100
AcDbSymbolTableRecord
100
AcDbLayerTableRecord
  2
Layer_1
 70
0
  6
CONTINUOUS
  0
ENDTAB
  0
TABLE
  2
STYLE
  5
3
330
0
100
AcDbSymbolTable
 70
     1
  0
STYLE
  5
11
330
3
100
AcDbSymbolTableRecord
100
AcDbTextStyleTableRecord
  2
STANDARD
 70
     0
 40
0.0
 41
1.0
 50
0.0
 71
     0
 42
2.5
  3
txt
  4

  0
ENDTAB
  0
TABLE
  2
VIEW
  5
6
330
0
100
AcDbSymbolTable
 70
     0
  0
ENDTAB
  0
TABLE
  2
UCS
  5
7
330
0
100
AcDbSymbolTable
 70
     0
  0
ENDTAB
  0
TABLE
  2
APPID
  5
9
330
0
100
AcDbSymbolTable
 70
     2
  0
APPID
  5
12
330
9
100
AcDbSymbolTableRecord
100
AcDbRegAppTableRecord
  2
ACAD
 70
     0
  0
ENDTAB
  0
TABLE
  2
DIMSTYLE
  5
A
330
0
100
AcDbSymbolTable
 70
     1
  0
DIMSTYLE
105
27
330
A
100
AcDbSymbolTableRecord
100
AcDbDimStyleTableRecord
  2
ISO-25
 70
     0
  3

  4

  5

  6

  7

 40
1.0
 41
2.5
 42
0.625
 43
3.75
 44
1.25
 45
0.0
 46
0.0
 47
0.0
 48
0.0
140
2.5
141
2.5
142
0.0
143
0.03937007874016
144
1.0
145
0.0
146
1.0
147
0.625
 71
     0
 72
     0
 73
     0
 74
     0
 75
     0
 76
     0
 77
     1
 78
     8
170
     0
171
     3
172
     1
173
     0
174
     0
175
     0
176
     0
177
     0
178
     0
270
     2
271
     2
272
     2
273
     2
274
     3
340
11
275
     0
280
     0
281
     0
282
     0
283
     0
284
     8
285
     0
286
     0
287
     3
288
     0
  0
ENDTAB
  0
TABLE
  2
BLOCK_RECORD
  5
1
330
0
100
AcDbSymbolTable
 70
     1
  0
BLOCK_RECORD
  5
1F
330
1
100
AcDbSymbolTableRecord
100
AcDbBlockTableRecord
  2
*MODEL_SPACE
  0
BLOCK_RECORD
  5
1B
330
1
100
AcDbSymbolTableRecord
100
AcDbBlockTableRecord
  2
*PAPER_SPACE
  0
ENDTAB
  0
ENDSEC
  0
SECTION
  2
BLOCKS
  0
BLOCK
  5
20
330
1F
100
AcDbEntity
  8
0
100
AcDbBlockBegin
  2
*MODEL_SPACE
 70
     0
 10
0.0
 20
0.0
 30
0.0
  3
*MODEL_SPACE
  1

  0
ENDBLK
  5
21
330
1F
100
AcDbEntity
  8
0
100
AcDbBlockEnd
  0
BLOCK
  5
1C
330
1B
100
AcDbEntity
 67
     1
  8
0
100
AcDbBlockBegin
  2
*PAPER_SPACE
  1

  0
ENDBLK
  5
1D
330
1B
100
AcDbEntity
 67
     1
  8
0
100
AcDbBlockEnd
  0
ENDSEC
  0
SECTION
  2
ENTITIES
  0
LWPOLYLINE
  5
100
100
AcDbEntity
  8
Layer_1
 62
7
100
AcDbPolyline
 90
17
 70
0
 10
4.536499
 20
9.949437
 30
0.0
 10
5.200712
 20
5.487348
 30
0.0
 10
5.864928
 20
1.025260
 30
0.0
 10
4.677060
 20
1.025260
 30
0.0
 10
3.489192
 20
1.025260
 30
0.0
 10
3.431314
 20
1.827279
 30
0.0
 10
3.373436
 20
2.629298
 30
0.0
 10
2.957268
 20
2.629298
 30
0.0
 10
2.541101
 20
2.629298
 30
0.0
 10
2.472199
 20
1.827279
 30
0.0
 10
2.403297
 20
1.025260
 30
0.0
 10
1.201649
 20
1.025260
 30
0.0
 10
-0.000000
 20
1.025260
 30
0.0
 10
0.589799
 20
5.487348
 30
0.0
 10
1.179599
 20
9.949437
 30
0.0
 10
2.858050
 20
9.949437
 30
0.0
 10
4.536499
 20
9.949437
 30
0.0
  0
LWPOLYLINE
  5
101
100
AcDbEntity
  8
Layer_1
 62
7
100
AcDbPolyline
 90
7
 70
0
 10
3.307289
 20
4.211283
 30
0.0
 10
3.130900
 20
5.904890
 30
0.0
 10
2.954511
 20
7.954035
 30
0.0
 10
2.667878
 20
5.739525
 30
0.0
 10
2.513539
 20
4.211283
 30
0.0
 10
2.910414
 20
4.211283
 30
0.0
 10
3.307289
 20
4.211283
 30
0.0
  0
LWPOLYLINE
  5
102
100
AcDbEntity
  8
Layer_1
 62
7
100
AcDbPolyline
 90
35
 70
0
 10
8.461152
 20
8.339887
 30
0.0
 10
8.441848
 20
8.003644
 30
0.0
 10
8.422544
 20
7.667405
 30
0.0
 10
8.691262
 20
8.018797
 30
0.0
 10
9.012346
 20
8.268228
 30
0.0
 10
9.391303
 20
8.421184
 30
0.0
 10
9.822632
 20
8.472178
 30
0.0
 10
10.343526
 20
8.404648
 30
0.0
 10
10.759697
 20
8.202083
 30
0.0
 10
11.058728
 20
7.896152
 30
0.0
 10
11.228231
 20
7.518575
 30
0.0
 10
11.306776
 20
6.972867
 30
0.0
 10
11.332966
 20
6.151561
 30
0.0
 10
11.332966
 20
3.588410
 30
0.0
 10
11.332966
 20
1.025260
 30
0.0
 10
10.219512
 20
1.025260
 30
0.0
 10
9.106058
 20
1.025260
 30
0.0
 10
9.106058
 20
3.558094
 30
0.0
 10
9.106058
 20
6.090928
 30
0.0
 10
9.093668
 20
6.698640
 30
0.0
 10
9.056463
 20
7.011458
 30
0.0
 10
8.962754
 20
7.135478
 30
0.0
 10
8.780856
 20
7.176824
 30
0.0
 10
8.587929
 20
7.128586
 30
0.0
 10
8.483199
 20
6.983897
 30
0.0
 10
8.437722
 20
6.636628
 30
0.0
 10
8.422567
 20
5.969660
 30
0.0
 10
8.422567
 20
3.497461
 30
0.0
 10
8.422567
 20
1.025260
 30
0.0
 10
7.309112
 20
1.025260
 30
0.0
 10
6.195658
 20
1.025260
 30
0.0
 10
6.195658
 20
4.682575
 30
0.0
 10
6.195658
 20
8.339887
 30
0.0
 10
7.328405
 20
8.339887
 30
0.0
 10
8.461152
 20
8.339887
 30
0.0
  0
LWPOLYLINE
  5
103
100
AcDbEntity
  8
Layer_1
 62
7
100
AcDbPolyline
 90
39
 70
0
 10
14.452862
 20
9.315537
 30
0.0
 10
14.452862
 20
8.739519
 30
0.0
 10
14.452862
 20
8.163498
 30
0.0
 10
14.753277
 20
8.163498
 30
0.0
 10
15.053688
 20
8.163498
 30
0.0
 10
15.053688
 20
7.584722
 30
0.0
 10
15.053688
 20
7.005947
 30
0.0
 10
14.753277
 20
7.005947
 30
0.0
 10
14.452862
 20
7.005947
 30
0.0
 10
14.452862
 20
5.049131
 30
0.0
 10
14.452862
 20
3.092317
 30
0.0
 10
14.470784
 20
2.530077
 30
0.0
 10
14.524533
 20
2.287544
 30
0.0
 10
14.718834
 20
2.225531
 30
0.0
 10
15.147406
 20
2.204872
 30
0.0
 10
15.147406
 20
1.615073
 30
0.0
 10
15.147406
 20
1.025271
 30
0.0
 10
14.698164
 20
1.025271
 30
0.0
 10
14.248926
 20
1.025271
 30
0.0
 10
13.597111
 20
1.040426
 30
0.0
 10
13.163031
 20
1.085904
 30
0.0
 10
12.857105
 20
1.192014
 30
0.0
 10
12.589767
 20
1.378046
 30
0.0
 10
12.388573
 20
1.624714
 30
0.0
 10
12.281086
 20
1.901701
 30
0.0
 10
12.235609
 20
2.397794
 30
0.0
 10
12.220454
 20
3.290765
 30
0.0
 10
12.220454
 20
5.148360
 30
0.0
 10
12.220454
 20
7.005955
 30
0.0
 10
11.980675
 20
7.005955
 30
0.0
 10
11.740896
 20
7.005955
 30
0.0
 10
11.740896
 20
7.584731
 30
0.0
 10
11.740896
 20
8.163506
 30
0.0
 10
11.980675
 20
8.163506
 30
0.0
 10
12.220454
 20
8.163506
 30
0.0
 10
12.220454
 20
8.739528
 30
0.0
 10
12.220454
 20
9.315546
 30
0.0
 10
13.336662
 20
9.315546
 30
0.0
 10
14.452874
 20
9.315546
 30
0.0
  0
LWPOLYLINE
  5
104
100
AcDbEntity
  8
Layer_1
 62
7
100
AcDbPolyline
 90
35
 70
0
 10
20.582376
 20
5.771224
 30
0.0
 10
20.582376
 20
4.875499
 30
0.0
 10
20.582376
 20
3.979774
 30
0.0
 10
20.557569
 20
3.124011
 30
0.0
 10
20.483158
 20
2.530077
 30
0.0
 10
20.327437
 20
2.086350
 30
0.0
 10
20.058721
 20
1.670183
 30
0.0
 10
19.686648
 20
1.324294
 30
0.0
 10
19.220874
 20
1.080381
 30
0.0
 10
18.675169
 20
0.939823
 30
0.0
 10
18.052299
 20
0.892968
 30
0.0
 10
17.370168
 20
0.932931
 30
0.0
 10
16.801039
 20
1.052822
 30
0.0
 10
16.344908
 20
1.258149
 30
0.0
 10
16.001777
 20
1.543403
 30
0.0
 10
15.760621
 20
1.907204
 30
0.0
 10
15.599390
 20
2.337153
 30
0.0
 10
15.508438
 20
2.921440
 30
0.0
 10
15.478122
 20
3.737240
 30
0.0
 10
15.478122
 20
4.674306
 30
0.0
 10
15.478122
 20
5.611371
 30
0.0
 10
15.533243
 20
6.519494
 30
0.0
 10
15.698608
 20
7.204383
 30
0.0
 10
16.007289
 20
7.721143
 30
0.0
 10
16.492358
 20
8.124912
 30
0.0
 10
17.145548
 20
8.385356
 30
0.0
 10
17.958593
 20
8.472178
 30
0.0
 10
18.654499
 20
8.415672
 30
0.0
 10
19.242924
 20
8.246181
 30
0.0
 10
19.721099
 20
7.991238
 30
0.0
 10
20.075260
 20
7.667405
 30
0.0
 10
20.320545
 20
7.303598
 30
0.0
 10
20.472135
 20
6.928776
 30
0.0
 10
20.554812
 20
6.449215
 30
0.0
 10
20.582385
 20
5.771224
 30
0.0
  0
LWPOLYLINE
  5
105
100
AcDbEntity
  8
Layer_1
 62
7
100
AcDbPolyline
 90
21
 70
0
 10
18.355477
 20
6.322438
 30
0.0
 10
18.340321
 20
6.779943
 30
0.0
 10
18.294844
 20
7.027994
 30
0.0
 10
18.199758
 20
7.139613
 30
0.0
 10
18.035772
 20
7.176824
 30
0.0
 10
17.870407
 20
7.139613
 30
0.0
 10
17.771189
 20
7.027994
 30
0.0
 10
17.721580
 20
6.779943
 30
0.0
 10
17.705042
 20
6.322438
 30
0.0
 10
17.705042
 20
4.671548
 30
0.0
 10
17.705042
 20
3.020658
 30
0.0
 10
17.721580
 20
2.592090
 30
0.0
 10
17.771192
 20
2.342665
 30
0.0
 10
17.869033
 20
2.226908
 30
0.0
 10
18.030263
 20
2.188326
 30
0.0
 10
18.194249
 20
2.224154
 30
0.0
 10
18.289335
 20
2.331641
 30
0.0
 10
18.338944
 20
2.557636
 30
0.0
 10
18.355482
 20
2.949002
 30
0.0
 10
18.355482
 20
4.635720
 30
0.0
 10
18.355482
 20
6.322438
 30
0.0
  0
LWPOLYLINE
  5
106
100
AcDbEntity
  8
Layer_1
 62
7
100
AcDbPolyline
 90
9
 70
0
 10
23.614061
 20
9.949437
 30
0.0
 10
23.614061
 20
9.367904
 30
0.0
 10
23.614061
 20
8.786371
 30
0.0
 10
22.467533
 20
8.786371
 30
0.0
 10
21.321006
 20
8.786371
 30
0.0
 10
21.321006
 20
9.367904
 30
0.0
 10
21.321006
 20
9.949437
 30
0.0
 10
22.467533
 20
9.949437
 30
0.0
 10
23.614061
 20
9.949437
 30
0.0
  0
LWPOLYLINE
  5
107
100
AcDbEntity
  8
Layer_1
 62
7
100
AcDbPolyline
 90
9
 70
0
 10
23.614061
 20
8.339887
 30
0.0
 10
23.614061
 20
4.682575
 30
0.0
 10
23.614061
 20
1.025260
 30
0.0
 10
22.467533
 20
1.025260
 30
0.0
 10
21.321006
 20
1.025260
 30
0.0
 10
21.321006
 20
4.682575
 30
0.0
 10
21.321006
 20
8.339887
 30
0.0
 10
22.467533
 20
8.339887
 30
0.0
 10
23.614061
 20
8.339887
 30
0.0
  0
LWPOLYLINE
  5
108
100
AcDbEntity
  8
Layer_1
 62
7
100
AcDbPolyline
 90
35
 70
0
 10
26.673305
 20
8.339887
 30
0.0
 10
26.654001
 20
8.003644
 30
0.0
 10
26.634697
 20
7.667405
 30
0.0
 10
26.903415
 20
8.018797
 30
0.0
 10
27.224499
 20
8.268228
 30
0.0
 10
27.603456
 20
8.421184
 30
0.0
 10
28.034784
 20
8.472178
 30
0.0
 10
28.555679
 20
8.404648
 30
0.0
 10
28.971850
 20
8.202083
 30
0.0
 10
29.270881
 20
7.896152
 30
0.0
 10
29.440384
 20
7.518575
 30
0.0
 10
29.518929
 20
6.972867
 30
0.0
 10
29.545119
 20
6.151561
 30
0.0
 10
29.545119
 20
3.588410
 30
0.0
 10
29.545119
 20
1.025260
 30
0.0
 10
28.431665
 20
1.025260
 30
0.0
 10
27.318211
 20
1.025260
 30
0.0
 10
27.318211
 20
3.558094
 30
0.0
 10
27.318211
 20
6.090928
 30
0.0
 10
27.305821
 20
6.698640
 30
0.0
 10
27.268616
 20
7.011458
 30
0.0
 10
27.174907
 20
7.135478
 30
0.0
 10
26.993009
 20
7.176824
 30
0.0
 10
26.800082
 20
7.128586
 30
0.0
 10
26.695352
 20
6.983897
 30
0.0
 10
26.649875
 20
6.636628
 30
0.0
 10
26.634719
 20
5.969660
 30
0.0
 10
26.634719
 20
3.497461
 30
0.0
 10
26.634719
 20
1.025260
 30
0.0
 10
25.521265
 20
1.025260
 30
0.0
 10
24.407811
 20
1.025260
 30
0.0
 10
24.407811
 20
4.682575
 30
0.0
 10
24.407811
 20
8.339887
 30
0.0
 10
25.540558
 20
8.339887
 30
0.0
 10
26.673305
 20
8.339887
 30
0.0
  0
LWPOLYLINE
  5
109
100
AcDbEntity
  8
Layer_1
 62
7
100
AcDbPolyline
 90
51
 70
0
 10
35.360458
 20
4.553037
 30
0.0
 10
33.919030
 20
4.553037
 30
0.0
 10
32.477603
 20
4.553037
 30
0.0
 10
32.477603
 20
3.762045
 30
0.0
 10
32.477603
 20
2.971049
 30
0.0
 10
32.495524
 20
2.563148
 30
0.0
 10
32.549273
 20
2.331641
 30
0.0
 10
32.654003
 20
2.224151
 30
0.0
 10
32.824880
 20
2.188326
 30
0.0
 10
33.035717
 20
2.235177
 30
0.0
 10
33.161120
 20
2.375738
 30
0.0
 10
33.227264
 20
2.656857
 30
0.0
 10
33.249306
 20
3.114367
 30
0.0
 10
33.249306
 20
3.596680
 30
0.0
 10
33.249306
 20
4.078992
 30
0.0
 10
34.304882
 20
4.078992
 30
0.0
 10
35.360460
 20
4.078992
 30
0.0
 10
35.360460
 20
3.808897
 30
0.0
 10
35.360460
 20
3.538801
 30
0.0
 10
35.338419
 20
2.939353
 30
0.0
 10
35.272277
 20
2.497006
 30
0.0
 10
35.131714
 20
2.120801
 30
0.0
 10
34.875402
 20
1.719792
 30
0.0
 10
34.518487
 20
1.357368
 30
0.0
 10
34.076140
 20
1.096919
 30
0.0
 10
33.534570
 20
0.943957
 30
0.0
 10
32.868980
 20
0.892968
 30
0.0
 10
32.204764
 20
0.943957
 30
0.0
 10
31.623234
 20
1.096919
 30
0.0
 10
31.142297
 20
1.338075
 30
0.0
 10
30.779872
 20
1.653644
 30
0.0
 10
30.527693
 20
2.028472
 30
0.0
 10
30.366462
 20
2.436371
 30
0.0
 10
30.279645
 20
2.962780
 30
0.0
 10
30.250706
 20
3.682117
 30
0.0
 10
30.250706
 20
4.748719
 30
0.0
 10
30.250706
 20
5.815322
 30
0.0
 10
30.315473
 20
6.672456
 30
0.0
 10
30.509777
 20
7.325651
 30
0.0
 10
30.851531
 20
7.816226
 30
0.0
 10
31.358651
 20
8.174522
 30
0.0
 10
31.992545
 20
8.397759
 30
0.0
 10
32.714638
 20
8.472178
 30
0.0
 10
33.569021
 20
8.382601
 30
0.0
 10
34.258041
 20
8.113889
 30
0.0
 10
34.777559
 20
7.701850
 30
0.0
 10
35.112427
 20
7.171312
 30
0.0
 10
35.298456
 20
6.467128
 30
0.0
 10
35.360472
 20
5.523176
 30
0.0
 10
35.360472
 20
5.038107
 30
0.0
 10
35.360472
 20
4.553037
 30
0.0
  0
LWPOLYLINE
  5
10a
100
AcDbEntity
  8
Layer_1
 62
7
100
AcDbPolyline
 90
15
 70
0
 10
33.128052
 20
5.743662
 30
0.0
 10
33.128052
 20
6.011003
 30
0.0
 10
33.128052
 20
6.278341
 30
0.0
 10
33.112896
 20
6.745492
 30
0.0
 10
33.067419
 20
7.011458
 30
0.0
 10
32.975090
 20
7.135478
 30
0.0
 10
32.819374
 20
7.176824
 30
0.0
 10
32.631959
 20
7.140990
 30
0.0
 10
32.532741
 20
7.033506
 30
0.0
 10
32.491398
 20
6.775808
 30
0.0
 10
32.477625
 20
6.278341
 30
0.0
 10
32.477625
 20
6.011003
 30
0.0
 10
32.477625
 20
5.743662
 30
0.0
 10
32.802841
 20
5.743662
 30
0.0
 10
33.128060
 20
5.743662
 30
0.0
  0
LWPOLYLINE
  5
10b
100
AcDbEntity
  8
Layer_1
 62
7
100
AcDbPolyline
 90
17
 70
0
 10
42.151430
 20
9.949437
 30
0.0
 10
42.815643
 20
5.487348
 30
0.0
 10
43.479858
 20
1.025260
 30
0.0
 10
42.291991
 20
1.025260
 30
0.0
 10
41.104123
 20
1.025260
 30
0.0
 10
41.046245
 20
1.827279
 30
0.0
 10
40.988367
 20
2.629298
 30
0.0
 10
40.572199
 20
2.629298
 30
0.0
 10
40.156031
 20
2.629298
 30
0.0
 10
40.087129
 20
1.827279
 30
0.0
 10
40.018228
 20
1.025260
 30
0.0
 10
38.816576
 20
1.025260
 30
0.0
 10
37.614928
 20
1.025260
 30
0.0
 10
38.204727
 20
5.487348
 30
0.0
 10
38.794529
 20
9.949437
 30
0.0
 10
40.472978
 20
9.949437
 30
0.0
 10
42.151430
 20
9.949437
 30
0.0
  0
LWPOLYLINE
  5
10c
100
AcDbEntity
  8
Layer_1
 62
7
100
AcDbPolyline
 90
7
 70
0
 10
40.922219
 20
4.211283
 30
0.0
 10
40.745831
 20
5.904890
 30
0.0
 10
40.569442
 20
7.954035
 30
0.0
 10
40.282808
 20
5.739525
 30
0.0
 10
40.128469
 20
4.211283
 30
0.0
 10
40.525344
 20
4.211283
 30
0.0
 10
40.922219
 20
4.211283
 30
0.0
  0
LWPOLYLINE
  5
10d
100
AcDbEntity
  8
Layer_1
 62
7
100
AcDbPolyline
 90
37
 70
0
 10
48.909331
 20
8.339887
 30
0.0
 10
48.909331
 20
4.682575
 30
0.0
 10
48.909331
 20
1.025260
 30
0.0
 10
47.776582
 20
1.025260
 30
0.0
 10
46.643835
 20
1.025260
 30
0.0
 10
46.663139
 20
1.328428
 30
0.0
 10
46.682443
 20
1.631597
 30
0.0
 10
46.423371
 20
1.307759
 30
0.0
 10
46.109179
 20
1.074869
 30
0.0
 10
45.746752
 20
0.938443
 30
0.0
 10
45.331964
 20
0.892968
 30
0.0
 10
44.873077
 20
0.937065
 30
0.0
 10
44.499632
 20
1.069357
 30
0.0
 10
44.211621
 20
1.274685
 30
0.0
 10
44.009048
 20
1.537891
 30
0.0
 10
43.883648
 20
1.835545
 30
0.0
 10
43.816123
 20
2.144228
 30
0.0
 10
43.787190
 20
2.619649
 30
0.0
 10
43.777538
 20
3.406510
 30
0.0
 10
43.777538
 20
5.873200
 30
0.0
 10
43.777538
 20
8.339887
 30
0.0
 10
44.890992
 20
8.339887
 30
0.0
 10
46.004449
 20
8.339887
 30
0.0
 10
46.004449
 20
5.851150
 30
0.0
 10
46.004449
 20
3.362412
 30
0.0
 10
46.016839
 20
2.681661
 30
0.0
 10
46.054047
 20
2.348176
 30
0.0
 10
46.153265
 20
2.228286
 30
0.0
 10
46.340677
 20
2.188326
 30
0.0
 10
46.537736
 20
2.229663
 30
0.0
 10
46.632822
 20
2.353688
 30
0.0
 10
46.670028
 20
2.702331
 30
0.0
 10
46.682417
 20
3.417533
 30
0.0
 10
46.682417
 20
5.878711
 30
0.0
 10
46.682417
 20
8.339887
 30
0.0
 10
47.795871
 20
8.339887
 30
0.0
 10
48.909328
 20
8.339887
 30
0.0
  0
LWPOLYLINE
  5
10e
100
AcDbEntity
  8
Layer_1
 62
7
100
AcDbPolyline
 90
35
 70
0
 10
51.946525
 20
9.949437
 30
0.0
 10
51.946525
 20
8.893858
 30
0.0
 10
51.946525
 20
7.838282
 30
0.0
 10
52.237290
 20
8.116641
 30
0.0
 10
52.558374
 20
8.312325
 30
0.0
 10
52.913907
 20
8.432210
 30
0.0
 10
53.297003
 20
8.472178
 30
0.0
 10
53.724192
 20
8.436345
 30
0.0
 10
54.090753
 20
8.328863
 30
0.0
 10
54.387028
 20
8.156603
 30
0.0
 10
54.603385
 20
7.926476
 30
0.0
 10
54.743940
 20
7.670157
 30
0.0
 10
54.812844
 20
7.419357
 30
0.0
 10
54.841778
 20
7.030745
 30
0.0
 10
54.851430
 20
6.361024
 30
0.0
 10
54.851430
 20
4.712891
 30
0.0
 10
54.851430
 20
3.064756
 30
0.0
 10
54.823857
 20
2.361957
 30
0.0
 10
54.741180
 20
1.863107
 30
0.0
 10
54.563408
 20
1.496548
 30
0.0
 10
54.239572
 20
1.179601
 30
0.0
 10
53.805489
 20
0.964627
 30
0.0
 10
53.296995
 20
0.892968
 30
0.0
 10
52.918033
 20
0.935688
 30
0.0
 10
52.563878
 20
1.063845
 30
0.0
 10
52.241416
 20
1.277442
 30
0.0
 10
51.946516
 20
1.576476
 30
0.0
 10
51.874860
 20
1.300869
 30
0.0
 10
51.803201
 20
1.025260
 30
0.0
 10
50.761406
 20
1.025260
 30
0.0
 10
49.719608
 20
1.025260
 30
0.0
 10
49.719608
 20
5.487348
 30
0.0
 10
49.719608
 20
9.949437
 30
0.0
 10
50.833062
 20
9.949437
 30
0.0
 10
51.946516
 20
9.949437
 30
0.0
  0
LWPOLYLINE
  5
10f
100
AcDbEntity
  8
Layer_1
 62
7
100
AcDbPolyline
 90
21
 70
0
 10
52.624513
 20
6.261806
 30
0.0
 10
52.606592
 20
6.730334
 30
0.0
 10
52.552854
 20
7.000435
 30
0.0
 10
52.446744
 20
7.132721
 30
0.0
 10
52.271735
 20
7.176824
 30
0.0
 10
52.103613
 20
7.138233
 30
0.0
 10
52.007152
 20
7.022482
 30
0.0
 10
51.961675
 20
6.757896
 30
0.0
 10
51.946519
 20
6.261806
 30
0.0
 10
51.946519
 20
4.685329
 30
0.0
 10
51.946519
 20
3.108853
 30
0.0
 10
51.963058
 20
2.625161
 30
0.0
 10
52.012669
 20
2.353688
 30
0.0
 10
52.117399
 20
2.229666
 30
0.0
 10
52.288276
 20
2.188326
 30
0.0
 10
52.460528
 20
2.231043
 30
0.0
 10
52.558371
 20
2.359200
 30
0.0
 10
52.607980
 20
2.649968
 30
0.0
 10
52.624519
 20
3.180512
 30
0.0
 10
52.624519
 20
4.721160
 30
0.0
 10
52.624519
 20
6.261806
 30
0.0
  0
LWPOLYLINE
  5
110
100
AcDbEntity
  8
Layer_1
 62
7
100
AcDbPolyline
 90
21
 70
0
 10
57.811456
 20
8.339887
 30
0.0
 10
57.767358
 20
7.860329
 30
0.0
 10
57.723261
 20
7.380772
 30
0.0
 10
58.317195
 20
8.169004
 30
0.0
 10
59.128860
 20
8.472178
 30
0.0
 10
59.128860
 20
7.185090
 30
0.0
 10
59.128860
 20
5.898004
 30
0.0
 10
58.598314
 20
5.856659
 30
0.0
 10
58.230381
 20
5.732639
 30
0.0
 10
57.998868
 20
5.534197
 30
0.0
 10
57.877603
 20
5.269617
 30
0.0
 10
57.827991
 20
4.784544
 30
0.0
 10
57.811453
 20
3.913629
 30
0.0
 10
57.811453
 20
2.469444
 30
0.0
 10
57.811453
 20
1.025260
 30
0.0
 10
56.697999
 20
1.025260
 30
0.0
 10
55.584544
 20
1.025260
 30
0.0
 10
55.584544
 20
4.682575
 30
0.0
 10
55.584544
 20
8.339887
 30
0.0
 10
56.697999
 20
8.339887
 30
0.0
 10
57.811453
 20
8.339887
 30
0.0
  0
LWPOLYLINE
  5
111
100
AcDbEntity
  8
Layer_1
 62
7
100
AcDbPolyline
 90
31
 70
0
 10
64.481162
 20
8.339887
 30
0.0
 10
64.161456
 20
5.694053
 30
0.0
 10
63.841751
 20
3.048220
 30
0.0
 10
63.703945
 20
1.991264
 30
0.0
 10
63.588192
 20
1.333940
 30
0.0
 10
63.454520
 20
0.916395
 30
0.0
 10
63.251952
 20
0.578776
 30
0.0
 10
62.968073
 20
0.321084
 30
0.0
 10
62.590494
 20
0.143315
 30
0.0
 10
62.044789
 20
0.035828
 30
0.0
 10
61.245527
 20
0.000000
 30
0.0
 10
60.570291
 20
0.000000
 30
0.0
 10
59.895051
 20
0.000000
 30
0.0
 10
59.895051
 20
0.584287
 30
0.0
 10
59.895051
 20
1.168575
 30
0.0
 10
60.320863
 20
1.180965
 30
0.0
 10
60.562022
 20
1.218173
 30
0.0
 10
60.673643
 20
1.304987
 30
0.0
 10
60.710849
 20
1.455194
 30
0.0
 10
60.676398
 20
1.690838
 30
0.0
 10
60.573045
 20
2.221382
 30
0.0
 10
59.963953
 20
5.280629
 30
0.0
 10
59.354858
 20
8.339873
 30
0.0
 10
60.366337
 20
8.339873
 30
0.0
 10
61.377819
 20
8.339873
 30
0.0
 10
61.741623
 20
5.873186
 30
0.0
 10
62.105424
 20
3.406496
 30
0.0
 10
62.281813
 20
5.873186
 30
0.0
 10
62.458202
 20
8.339873
 30
0.0
 10
63.469684
 20
8.339873
 30
0.0
 10
64.481162
 20
8.339873
 30
0.0
  0
ENDSEC
  0
SECTION
  2
OBJECTS
  0
DICTIONARY
  5
C
330
0
100
AcDbDictionary
  3
ACAD_GROUP
350
D
  3
ACAD_MLINESTYLE
350
17
  0
DICTIONARY
  5
D
330
C
100
AcDbDictionary
  0
DICTIONARY
  5
1A
330
C
100
AcDbDictionary
  0
DICTIONARY
  5
17
330
C
100
AcDbDictionary
  3
STANDARD
350
18
  0
DICTIONARY
  5
19
330
C
100
AcDbDictionary
  0
ENDSEC
  0
EOF
